<svg width="291" height="56" viewBox="0 0 291 56" fill="none" xmlns="http://www.w3.org/2000/svg">
<circle cx="28" cy="28" r="28" fill="#FFAD05"/>
<path d="M44.0971 30.2627C46.3318 26.0056 41.7894 23.0533 35.8505 21.6055C36.2973 20.5899 36.4268 19.2605 35.1668 17.9912C33.551 16.3666 34.6249 14 34.6249 14C34.6249 14 31.2334 17.1284 33.3748 19.2856C34.1647 20.0807 34.5759 20.7789 34.7725 21.3628C33.133 21.0249 31.4729 20.7961 29.8031 20.678C30.3018 19.3223 30.3502 17.6196 28.7787 15.9892C26.6274 13.7544 28.0601 10.5 28.0601 10.5C28.0601 10.5 23.5375 14.8015 26.3929 17.7672C27.4353 18.8487 27.9842 19.8007 28.2502 20.5987C26.4804 20.5456 24.7771 20.6232 23.2639 20.8349C23.4442 19.9628 23.2937 18.9601 22.3317 17.9917C20.7159 16.3672 21.7904 14 21.7904 14C21.7904 14 18.3983 17.1284 20.5403 19.2856C21.2112 19.9611 21.6043 20.5642 21.8301 21.0898C21.5746 21.1458 21.3267 21.2065 21.0881 21.2724C13.7136 20.5823 10.4971 22.106 11.9665 25.095C9.40216 27.6593 10.3658 30.5859 13.5747 32.8253C15.2489 39.7209 15.68 45.5 28.2893 45.5C39.5407 45.5 41.0952 40.8975 42.4888 35.007C46.6702 34.1746 45.7794 32.1702 44.0971 30.2627ZM43.0547 29.5738C41.6541 32.5605 35.5757 34.8087 28.2893 34.8087C21.0035 34.8087 14.9252 32.5605 13.524 29.5738C13.4942 29.4852 13.4657 29.393 13.4371 29.3032C14.1044 27.6103 16.2732 26.1415 19.3194 25.158C18.6037 25.8498 18.4549 26.8829 20.3385 27.2452C20.8775 27.349 22.3574 26.9897 21.7105 25.1533C21.6201 24.8967 21.4725 24.7246 21.2911 24.6207C23.3841 24.1418 25.76 23.8659 28.2893 23.8659C28.5728 23.8659 28.8511 23.8758 29.1305 23.8822C27.671 24.4002 26.4804 25.9962 29.4607 26.467C30.1187 26.5708 31.9252 26.2115 31.1354 24.3752C31.0664 24.2115 30.9558 24.0687 30.8146 23.961C33.607 24.1663 36.1369 24.7042 38.1821 25.4794C36.3837 25.3791 34.3887 26.4874 37.5836 28.0478C38.269 28.3827 40.3515 28.6901 40.0651 26.6624C40.0443 26.5159 39.9926 26.3755 39.9134 26.2506C41.5485 27.1122 42.6889 28.1569 43.141 29.3032L43.0547 29.5738Z" fill="white"/>
<path d="M24.4049 30.8239C26.2908 30.8239 27.5485 29.1188 28.5337 28.4514C29.9104 27.5181 33.3719 27.1541 30.3234 27.0806C27.4318 27.0112 23.8618 29.3585 21.476 29.1969C17.5257 28.9286 21.5717 30.8239 24.4049 30.8239Z" fill="white"/>
<path d="M28.4801 34.3075C29.1462 34.4359 30.9773 33.9914 30.1764 31.7205C29.2717 29.1509 23.7947 33.4057 28.4801 34.3075Z" fill="white"/>
<path d="M18.1108 28.687C17.4743 27.7887 16.5515 26.6494 16.1694 27.2427C15.6473 28.0541 15.4828 29.6869 15.862 29.7592C18.8347 30.3291 18.6264 29.4144 18.1108 28.687Z" fill="white"/>
<path d="M35.392 29.051C35.9281 28.3872 34.8576 26.7894 34.1705 27.0688C33.0948 27.5063 32.4747 27.21 32.0022 27.8738C30.8956 29.4284 34.6634 29.9523 35.392 29.051Z" fill="white"/>
<path d="M35.0572 30.9534C34.286 30.6133 34.468 31.7525 33.3287 30.8385C32.5132 30.184 30.7586 31.8348 31.9159 32.956C33.2039 34.2037 33.5469 33.0178 34.0882 33.1175C35.1884 33.32 37.0802 31.8459 35.0572 30.9534Z" fill="white"/>
<path d="M22.2343 31.3431C21.8324 30.9476 21.2934 31.4248 20.9889 32.0069C20.6873 31.8587 20.4417 31.8243 20.4417 31.8243C20.2113 31.1675 19.5259 30.7172 19.5259 30.7172C19.5259 30.7172 19.5883 31.4003 19.6787 31.7333C18.9216 31.4644 18.8982 30.1111 18.8982 30.1111C18.8982 30.1111 18.3902 30.415 18.4362 30.9313C17.6027 30.2587 16.8927 30.5731 16.8927 30.5731C16.8927 30.5731 17.9503 31.1681 18.0962 31.5694C17.5023 31.6155 17.1558 31.8208 16.954 32.2986C16.9546 32.3027 18.1277 31.7403 18.9957 32.1463C18.6532 32.4263 18.8236 33.1257 18.8236 33.1257C19.6315 32.2694 20.2767 32.361 20.7929 32.5144C20.7305 32.7763 20.7346 33.0155 20.8454 33.1607C21.7408 34.3379 24.8599 34.0731 25.6976 33.2027C26.712 32.1498 23.8933 32.9758 22.2343 31.3431Z" fill="white"/>
<path d="M24.4376 26.9091C24.1721 27.4422 24.1704 27.8447 24.4772 28.2636C24.4813 28.2647 24.6009 26.9697 25.3948 26.4331C25.4596 26.8706 26.1467 27.0829 26.1467 27.0829C25.5972 25.1369 27.2014 25.0354 27.1938 24.3372C26.3433 24.4089 25.8603 25.0272 25.8603 25.0272C25.1784 24.8878 24.4393 25.2442 24.4393 25.2442C24.4393 25.2442 25.0582 25.5412 25.3901 25.6351C24.7706 26.1467 23.597 25.4717 23.597 25.4717C23.597 25.4717 23.597 26.0644 24.0636 26.289C23.0586 26.6594 22.9641 27.4294 22.9641 27.4294C22.9641 27.4294 24.0176 26.828 24.4376 26.9091Z" fill="white"/>
<path d="M39.3423 29.5667C39.5838 29.1082 39.2315 28.6316 39.2315 28.6316C39.2315 28.6316 38.6896 29.8723 37.8875 29.8298C38.0987 29.5568 38.4195 28.9501 38.4195 28.9501C38.4195 28.9501 37.6133 29.1035 37.1478 29.6209C37.1478 29.6209 36.3918 29.4115 35.6662 29.8595C36.0757 30.4253 37.4255 29.5521 38.1413 31.4433C38.1413 31.4433 38.5671 30.864 38.3588 30.4738C39.3167 30.4323 40.1835 31.4018 40.1864 31.3983C40.1829 30.8792 39.9426 30.5572 39.4112 30.2865C39.7005 29.9721 40.9057 29.8292 40.9057 29.8292C40.9057 29.8292 40.3713 29.2663 39.3423 29.5667Z" fill="white"/>
<path d="M80.568 27.176H77.712V40H74.492V27.176H72.672V24.572H74.492V23.48C74.492 21.7067 74.9587 20.4187 75.892 19.616C76.844 18.7947 78.328 18.384 80.344 18.384V21.044C79.3733 21.044 78.692 21.2307 78.3 21.604C77.908 21.9587 77.712 22.584 77.712 23.48V24.572H80.568V27.176ZM82.3329 32.216C82.3329 30.6667 82.6502 29.2947 83.2849 28.1C83.9382 26.9053 84.8155 25.9813 85.9169 25.328C87.0369 24.656 88.2689 24.32 89.6129 24.32C90.8262 24.32 91.8809 24.5627 92.7769 25.048C93.6915 25.5147 94.4195 26.1027 94.9609 26.812V24.572H98.1809V40H94.9609V37.704C94.4195 38.432 93.6822 39.0387 92.7489 39.524C91.8155 40.0093 90.7515 40.252 89.5569 40.252C88.2315 40.252 87.0182 39.916 85.9169 39.244C84.8155 38.5533 83.9382 37.6013 83.2849 36.388C82.6502 35.156 82.3329 33.7653 82.3329 32.216ZM94.9609 32.272C94.9609 31.208 94.7369 30.284 94.2889 29.5C93.8595 28.716 93.2902 28.1187 92.5809 27.708C91.8715 27.2973 91.1062 27.092 90.2849 27.092C89.4635 27.092 88.6982 27.2973 87.9889 27.708C87.2795 28.1 86.7009 28.688 86.2529 29.472C85.8235 30.2373 85.6089 31.152 85.6089 32.216C85.6089 33.28 85.8235 34.2133 86.2529 35.016C86.7009 35.8187 87.2795 36.4347 87.9889 36.864C88.7169 37.2747 89.4822 37.48 90.2849 37.48C91.1062 37.48 91.8715 37.2747 92.5809 36.864C93.2902 36.4533 93.8595 35.856 94.2889 35.072C94.7369 34.2693 94.9609 33.336 94.9609 32.272ZM108.337 37.144L112.705 24.572H116.093L110.213 40H106.405L100.553 24.572H103.969L108.337 37.144ZM125.198 40.252C123.742 40.252 122.426 39.9253 121.25 39.272C120.074 38.6 119.15 37.6667 118.478 36.472C117.806 35.2587 117.47 33.8587 117.47 32.272C117.47 30.704 117.816 29.3133 118.506 28.1C119.197 26.8867 120.14 25.9533 121.334 25.3C122.529 24.6467 123.864 24.32 125.338 24.32C126.813 24.32 128.148 24.6467 129.342 25.3C130.537 25.9533 131.48 26.8867 132.17 28.1C132.861 29.3133 133.206 30.704 133.206 32.272C133.206 33.84 132.852 35.2307 132.142 36.444C131.433 37.6573 130.462 38.6 129.23 39.272C128.017 39.9253 126.673 40.252 125.198 40.252ZM125.198 37.48C126.02 37.48 126.785 37.284 127.494 36.892C128.222 36.5 128.81 35.912 129.258 35.128C129.706 34.344 129.93 33.392 129.93 32.272C129.93 31.152 129.716 30.2093 129.286 29.444C128.857 28.66 128.288 28.072 127.578 27.68C126.869 27.288 126.104 27.092 125.282 27.092C124.461 27.092 123.696 27.288 122.986 27.68C122.296 28.072 121.745 28.66 121.334 29.444C120.924 30.2093 120.718 31.152 120.718 32.272C120.718 33.9333 121.138 35.2213 121.978 36.136C122.837 37.032 123.91 37.48 125.198 37.48ZM139.554 26.812C140.02 26.028 140.636 25.4213 141.402 24.992C142.186 24.544 143.11 24.32 144.174 24.32V27.624H143.362C142.111 27.624 141.159 27.9413 140.506 28.576C139.871 29.2107 139.554 30.312 139.554 31.88V40H136.362V24.572H139.554V26.812ZM148.732 22.528C148.153 22.528 147.668 22.332 147.276 21.94C146.884 21.548 146.688 21.0627 146.688 20.484C146.688 19.9053 146.884 19.42 147.276 19.028C147.668 18.636 148.153 18.44 148.732 18.44C149.292 18.44 149.768 18.636 150.16 19.028C150.552 19.42 150.748 19.9053 150.748 20.484C150.748 21.0627 150.552 21.548 150.16 21.94C149.768 22.332 149.292 22.528 148.732 22.528ZM150.3 24.572V40H147.108V24.572H150.3ZM158.215 27.176V35.716C158.215 36.2947 158.345 36.7147 158.607 36.976C158.887 37.2187 159.353 37.34 160.007 37.34H161.967V40H159.447C158.009 40 156.908 39.664 156.143 38.992C155.377 38.32 154.995 37.228 154.995 35.716V27.176H153.175V24.572H154.995V20.736H158.215V24.572H161.967V27.176H158.215ZM179.049 31.908C179.049 32.4867 179.011 33.0093 178.937 33.476H167.149C167.242 34.708 167.699 35.6973 168.521 36.444C169.342 37.1907 170.35 37.564 171.545 37.564C173.262 37.564 174.475 36.8453 175.185 35.408H178.629C178.162 36.8267 177.313 37.9933 176.081 38.908C174.867 39.804 173.355 40.252 171.545 40.252C170.07 40.252 168.745 39.9253 167.569 39.272C166.411 38.6 165.497 37.6667 164.825 36.472C164.171 35.2587 163.845 33.8587 163.845 32.272C163.845 30.6853 164.162 29.2947 164.797 28.1C165.45 26.8867 166.355 25.9533 167.513 25.3C168.689 24.6467 170.033 24.32 171.545 24.32C173.001 24.32 174.298 24.6373 175.437 25.272C176.575 25.9067 177.462 26.8027 178.097 27.96C178.731 29.0987 179.049 30.4147 179.049 31.908ZM175.717 30.9C175.698 29.724 175.278 28.7813 174.457 28.072C173.635 27.3627 172.618 27.008 171.405 27.008C170.303 27.008 169.361 27.3627 168.577 28.072C167.793 28.7627 167.326 29.7053 167.177 30.9H175.717ZM192.655 26.812C193.122 26.028 193.738 25.4213 194.503 24.992C195.287 24.544 196.211 24.32 197.275 24.32V27.624H196.463C195.213 27.624 194.261 27.9413 193.607 28.576C192.973 29.2107 192.655 30.312 192.655 31.88V40H189.463V24.572H192.655V26.812ZM214.349 31.908C214.349 32.4867 214.312 33.0093 214.237 33.476H202.449C202.543 34.708 203 35.6973 203.821 36.444C204.643 37.1907 205.651 37.564 206.845 37.564C208.563 37.564 209.776 36.8453 210.485 35.408H213.929C213.463 36.8267 212.613 37.9933 211.381 38.908C210.168 39.804 208.656 40.252 206.845 40.252C205.371 40.252 204.045 39.9253 202.869 39.272C201.712 38.6 200.797 37.6667 200.125 36.472C199.472 35.2587 199.145 33.8587 199.145 32.272C199.145 30.6853 199.463 29.2947 200.097 28.1C200.751 26.8867 201.656 25.9533 202.813 25.3C203.989 24.6467 205.333 24.32 206.845 24.32C208.301 24.32 209.599 24.6373 210.737 25.272C211.876 25.9067 212.763 26.8027 213.397 27.96C214.032 29.0987 214.349 30.4147 214.349 31.908ZM211.017 30.9C210.999 29.724 210.579 28.7813 209.757 28.072C208.936 27.3627 207.919 27.008 206.705 27.008C205.604 27.008 204.661 27.3627 203.877 28.072C203.093 28.7627 202.627 29.7053 202.477 30.9H211.017ZM216.427 32.272C216.427 30.6853 216.744 29.2947 217.379 28.1C218.032 26.8867 218.928 25.9533 220.067 25.3C221.205 24.6467 222.512 24.32 223.987 24.32C225.853 24.32 227.393 24.768 228.607 25.664C229.839 26.5413 230.669 27.8013 231.099 29.444H227.655C227.375 28.6787 226.927 28.0813 226.311 27.652C225.695 27.2227 224.92 27.008 223.987 27.008C222.68 27.008 221.635 27.4747 220.851 28.408C220.085 29.3227 219.703 30.6107 219.703 32.272C219.703 33.9333 220.085 35.2307 220.851 36.164C221.635 37.0973 222.68 37.564 223.987 37.564C225.835 37.564 227.057 36.752 227.655 35.128H231.099C230.651 36.696 229.811 37.9467 228.579 38.88C227.347 39.7947 225.816 40.252 223.987 40.252C222.512 40.252 221.205 39.9253 220.067 39.272C218.928 38.6 218.032 37.6667 217.379 36.472C216.744 35.2587 216.427 33.8587 216.427 32.272ZM235.904 22.528C235.325 22.528 234.84 22.332 234.448 21.94C234.056 21.548 233.86 21.0627 233.86 20.484C233.86 19.9053 234.056 19.42 234.448 19.028C234.84 18.636 235.325 18.44 235.904 18.44C236.464 18.44 236.94 18.636 237.332 19.028C237.724 19.42 237.92 19.9053 237.92 20.484C237.92 21.0627 237.724 21.548 237.332 21.94C236.94 22.332 236.464 22.528 235.904 22.528ZM237.472 24.572V40H234.28V24.572H237.472ZM244.855 26.84C245.396 26.1307 246.133 25.5333 247.067 25.048C248 24.5627 249.055 24.32 250.231 24.32C251.575 24.32 252.797 24.656 253.899 25.328C255.019 25.9813 255.896 26.9053 256.531 28.1C257.165 29.2947 257.483 30.6667 257.483 32.216C257.483 33.7653 257.165 35.156 256.531 36.388C255.896 37.6013 255.019 38.5533 253.899 39.244C252.797 39.916 251.575 40.252 250.231 40.252C249.055 40.252 248.009 40.0187 247.095 39.552C246.18 39.0667 245.433 38.4693 244.855 37.76V47.336H241.663V24.572H244.855V26.84ZM254.235 32.216C254.235 31.152 254.011 30.2373 253.562 29.472C253.133 28.688 252.555 28.1 251.827 27.708C251.117 27.2973 250.352 27.092 249.531 27.092C248.728 27.092 247.963 27.2973 247.235 27.708C246.525 28.1187 245.947 28.716 245.499 29.5C245.069 30.284 244.855 31.208 244.855 32.272C244.855 33.336 245.069 34.2693 245.499 35.072C245.947 35.856 246.525 36.4533 247.235 36.864C247.963 37.2747 248.728 37.48 249.531 37.48C250.352 37.48 251.117 37.2747 251.827 36.864C252.555 36.4347 253.133 35.8187 253.562 35.016C254.011 34.2133 254.235 33.28 254.235 32.216ZM274.779 31.908C274.779 32.4867 274.742 33.0093 274.667 33.476H262.879C262.972 34.708 263.43 35.6973 264.251 36.444C265.072 37.1907 266.08 37.564 267.275 37.564C268.992 37.564 270.206 36.8453 270.915 35.408H274.359C273.892 36.8267 273.043 37.9933 271.811 38.908C270.598 39.804 269.086 40.252 267.275 40.252C265.8 40.252 264.475 39.9253 263.299 39.272C262.142 38.6 261.227 37.6667 260.555 36.472C259.902 35.2587 259.575 33.8587 259.575 32.272C259.575 30.6853 259.892 29.2947 260.527 28.1C261.18 26.8867 262.086 25.9533 263.243 25.3C264.419 24.6467 265.763 24.32 267.275 24.32C268.731 24.32 270.028 24.6373 271.167 25.272C272.306 25.9067 273.192 26.8027 273.827 27.96C274.462 29.0987 274.779 30.4147 274.779 31.908ZM271.447 30.9C271.428 29.724 271.008 28.7813 270.187 28.072C269.366 27.3627 268.348 27.008 267.135 27.008C266.034 27.008 265.091 27.3627 264.307 28.072C263.523 28.7627 263.056 29.7053 262.907 30.9H271.447ZM283.52 40.252C282.307 40.252 281.215 40.0373 280.244 39.608C279.292 39.16 278.536 38.5627 277.976 37.816C277.416 37.0507 277.118 36.2013 277.08 35.268H280.384C280.44 35.9213 280.748 36.472 281.308 36.92C281.887 37.3493 282.606 37.564 283.464 37.564C284.36 37.564 285.051 37.396 285.536 37.06C286.04 36.7053 286.292 36.2573 286.292 35.716C286.292 35.1373 286.012 34.708 285.452 34.428C284.911 34.148 284.043 33.84 282.848 33.504C281.691 33.1867 280.748 32.8787 280.02 32.58C279.292 32.2813 278.658 31.824 278.116 31.208C277.594 30.592 277.332 29.78 277.332 28.772C277.332 27.9507 277.575 27.204 278.06 26.532C278.546 25.8413 279.236 25.3 280.132 24.908C281.047 24.516 282.092 24.32 283.268 24.32C285.023 24.32 286.432 24.768 287.496 25.664C288.579 26.5413 289.158 27.7453 289.232 29.276H286.04C285.984 28.5853 285.704 28.0347 285.2 27.624C284.696 27.2133 284.015 27.008 283.156 27.008C282.316 27.008 281.672 27.1667 281.224 27.484C280.776 27.8013 280.552 28.2213 280.552 28.744C280.552 29.1547 280.702 29.5 281 29.78C281.299 30.06 281.663 30.284 282.092 30.452C282.522 30.6013 283.156 30.7973 283.996 31.04C285.116 31.3387 286.031 31.6467 286.74 31.964C287.468 32.2627 288.094 32.7107 288.616 33.308C289.139 33.9053 289.41 34.6987 289.428 35.688C289.428 36.5653 289.186 37.3493 288.7 38.04C288.215 38.7307 287.524 39.272 286.628 39.664C285.751 40.056 284.715 40.252 283.52 40.252Z" fill="#484634"/>
</svg>
