<svg width="247" height="48" viewBox="0 0 247 48" fill="none" xmlns="http://www.w3.org/2000/svg">
<circle cx="24" cy="24" r="24" fill="#FFAD05"/>
<path d="M37.7975 25.9395C39.713 22.2905 35.8195 19.76 30.729 18.519C31.112 17.6485 31.223 16.509 30.143 15.421C28.758 14.0285 29.6785 12 29.6785 12C29.6785 12 26.7715 14.6815 28.607 16.5305C29.284 17.212 29.6365 17.8105 29.805 18.311C28.3997 18.0213 26.9767 17.8252 25.5455 17.724C25.973 16.562 26.0145 15.1025 24.6675 13.705C22.8235 11.7895 24.0515 9 24.0515 9C24.0515 9 20.175 12.687 22.6225 15.229C23.516 16.156 23.9865 16.972 24.2145 17.656C22.6975 17.6105 21.2375 17.677 19.9405 17.8585C20.095 17.111 19.966 16.2515 19.1415 15.4215C17.7565 14.029 18.6775 12 18.6775 12C18.6775 12 15.77 14.6815 17.606 16.5305C18.181 17.1095 18.518 17.6265 18.7115 18.077C18.4925 18.125 18.28 18.177 18.0755 18.2335C11.7545 17.642 8.99748 18.948 10.257 21.51C8.05898 23.708 8.88498 26.2165 11.6355 28.136C13.0705 34.0465 13.44 39 24.248 39C33.892 39 35.2245 35.055 36.419 30.006C40.003 29.2925 39.2395 27.5745 37.7975 25.9395ZM36.904 25.349C35.7035 27.909 30.4935 29.836 24.248 29.836C18.003 29.836 12.793 27.909 11.592 25.349C11.5665 25.273 11.542 25.194 11.5175 25.117C12.0895 23.666 13.9485 22.407 16.5595 21.564C15.946 22.157 15.8185 23.0425 17.433 23.353C17.895 23.442 19.1635 23.134 18.609 21.56C18.5315 21.34 18.405 21.1925 18.2495 21.1035C20.0435 20.693 22.08 20.4565 24.248 20.4565C24.491 20.4565 24.7295 20.465 24.969 20.4705C23.718 20.9145 22.6975 22.2825 25.252 22.686C25.816 22.775 27.3645 22.467 26.6875 20.893C26.6283 20.7527 26.5335 20.6303 26.4125 20.538C28.806 20.714 30.9745 21.175 32.7275 21.8395C31.186 21.7535 29.476 22.7035 32.2145 24.041C32.802 24.328 34.587 24.5915 34.3415 22.8535C34.3237 22.7279 34.2794 22.6076 34.2115 22.5005C35.613 23.239 36.5905 24.1345 36.978 25.117L36.904 25.349Z" fill="white"/>
<path d="M20.9185 26.4205C22.535 26.4205 23.613 24.959 24.4575 24.387C25.6375 23.587 28.6045 23.275 25.9915 23.212C23.513 23.1525 20.453 25.1645 18.408 25.026C15.022 24.796 18.49 26.4205 20.9185 26.4205Z" fill="white"/>
<path d="M24.4115 29.4064C24.9825 29.5164 26.552 29.1354 25.8655 27.1889C25.09 24.9864 20.3955 28.6334 24.4115 29.4064Z" fill="white"/>
<path d="M15.5235 24.5891C14.978 23.8191 14.187 22.8426 13.8595 23.3511C13.412 24.0466 13.271 25.4461 13.596 25.5081C16.144 25.9966 15.9655 25.2126 15.5235 24.5891Z" fill="white"/>
<path d="M30.336 24.9009C30.7955 24.3319 29.878 22.9624 29.289 23.2019C28.367 23.5769 27.8355 23.3229 27.4305 23.8919C26.482 25.2244 29.7115 25.6734 30.336 24.9009Z" fill="white"/>
<path d="M30.049 26.5314C29.388 26.2399 29.544 27.2164 28.5675 26.4329C27.8685 25.8719 26.3645 27.2869 27.3565 28.2479C28.4605 29.3174 28.7545 28.3009 29.2185 28.3864C30.1615 28.5599 31.783 27.2964 30.049 26.5314Z" fill="white"/>
<path d="M19.058 26.8656C18.7135 26.5266 18.2515 26.9356 17.9905 27.4346C17.732 27.3076 17.5215 27.2781 17.5215 27.2781C17.324 26.7151 16.7365 26.3291 16.7365 26.3291C16.7365 26.3291 16.79 26.9146 16.8675 27.2001C16.2185 26.9696 16.1985 25.8096 16.1985 25.8096C16.1985 25.8096 15.763 26.0701 15.8025 26.5126C15.088 25.9361 14.4795 26.2056 14.4795 26.2056C14.4795 26.2056 15.386 26.7156 15.511 27.0596C15.002 27.0991 14.705 27.2751 14.532 27.6846C14.5325 27.6881 15.538 27.2061 16.282 27.5541C15.9885 27.7941 16.1345 28.3936 16.1345 28.3936C16.827 27.6596 17.38 27.7381 17.8225 27.8696C17.769 28.0941 17.7725 28.2991 17.8675 28.4236C18.635 29.4326 21.3085 29.2056 22.0265 28.4596C22.896 27.5571 20.48 28.2651 19.058 26.8656Z" fill="white"/>
<path d="M20.9465 23.0651C20.719 23.5221 20.7175 23.8671 20.9805 24.2261C20.984 24.2271 21.0865 23.1171 21.767 22.6571C21.8225 23.0321 22.4115 23.2141 22.4115 23.2141C21.9405 21.5461 23.3155 21.4591 23.309 20.8606C22.58 20.9221 22.166 21.4521 22.166 21.4521C21.5815 21.3326 20.948 21.6381 20.948 21.6381C20.948 21.6381 21.4785 21.8926 21.763 21.9731C21.232 22.4116 20.226 21.8331 20.226 21.8331C20.226 21.8331 20.226 22.3411 20.626 22.5336C19.7645 22.8511 19.6835 23.5111 19.6835 23.5111C19.6835 23.5111 20.5865 22.9956 20.9465 23.0651Z" fill="white"/>
<path d="M33.722 25.343C33.929 24.95 33.627 24.5415 33.627 24.5415C33.627 24.5415 33.1625 25.605 32.475 25.5685C32.656 25.3345 32.931 24.8145 32.931 24.8145C32.931 24.8145 32.24 24.946 31.841 25.3895C31.841 25.3895 31.193 25.21 30.571 25.594C30.922 26.079 32.079 25.3305 32.6925 26.9515C32.6925 26.9515 33.0575 26.455 32.879 26.1205C33.7 26.085 34.443 26.916 34.4455 26.913C34.4425 26.468 34.2365 26.192 33.781 25.96C34.029 25.6905 35.062 25.568 35.062 25.568C35.062 25.568 34.604 25.0855 33.722 25.343Z" fill="white"/>
<path d="M66.344 24.008H63.896V35H61.136V24.008H59.576V21.776H61.136V20.84C61.136 19.32 61.536 18.216 62.336 17.528C63.152 16.824 64.424 16.472 66.152 16.472V18.752C65.32 18.752 64.736 18.912 64.4 19.232C64.064 19.536 63.896 20.072 63.896 20.84V21.776H66.344V24.008ZM67.8568 28.328C67.8568 27 68.1288 25.824 68.6728 24.8C69.2328 23.776 69.9848 22.984 70.9288 22.424C71.8888 21.848 72.9448 21.56 74.0968 21.56C75.1368 21.56 76.0408 21.768 76.8088 22.184C77.5928 22.584 78.2168 23.088 78.6808 23.696V21.776H81.4408V35H78.6808V33.032C78.2168 33.656 77.5848 34.176 76.7848 34.592C75.9848 35.008 75.0728 35.216 74.0488 35.216C72.9128 35.216 71.8728 34.928 70.9288 34.352C69.9848 33.76 69.2328 32.944 68.6728 31.904C68.1288 30.848 67.8568 29.656 67.8568 28.328ZM78.6808 28.376C78.6808 27.464 78.4888 26.672 78.1048 26C77.7368 25.328 77.2488 24.816 76.6408 24.464C76.0328 24.112 75.3768 23.936 74.6728 23.936C73.9688 23.936 73.3128 24.112 72.7048 24.464C72.0968 24.8 71.6008 25.304 71.2168 25.976C70.8488 26.632 70.6648 27.416 70.6648 28.328C70.6648 29.24 70.8488 30.04 71.2168 30.728C71.6008 31.416 72.0968 31.944 72.7048 32.312C73.3288 32.664 73.9848 32.84 74.6728 32.84C75.3768 32.84 76.0328 32.664 76.6408 32.312C77.2488 31.96 77.7368 31.448 78.1048 30.776C78.4888 30.088 78.6808 29.288 78.6808 28.376ZM90.1464 32.552L93.8904 21.776H96.7944L91.7544 35H88.4904L83.4744 21.776H86.4024L90.1464 32.552ZM104.599 35.216C103.351 35.216 102.223 34.936 101.215 34.376C100.207 33.8 99.4145 33 98.8385 31.976C98.2625 30.936 97.9745 29.736 97.9745 28.376C97.9745 27.032 98.2705 25.84 98.8625 24.8C99.4545 23.76 100.263 22.96 101.287 22.4C102.311 21.84 103.455 21.56 104.719 21.56C105.983 21.56 107.127 21.84 108.151 22.4C109.175 22.96 109.983 23.76 110.575 24.8C111.167 25.84 111.463 27.032 111.463 28.376C111.463 29.72 111.159 30.912 110.551 31.952C109.943 32.992 109.111 33.8 108.055 34.376C107.015 34.936 105.863 35.216 104.599 35.216ZM104.599 32.84C105.303 32.84 105.959 32.672 106.567 32.336C107.191 32 107.695 31.496 108.079 30.824C108.463 30.152 108.655 29.336 108.655 28.376C108.655 27.416 108.471 26.608 108.103 25.952C107.735 25.28 107.247 24.776 106.639 24.44C106.031 24.104 105.375 23.936 104.671 23.936C103.967 23.936 103.311 24.104 102.703 24.44C102.111 24.776 101.639 25.28 101.287 25.952C100.935 26.608 100.759 27.416 100.759 28.376C100.759 29.8 101.119 30.904 101.839 31.688C102.575 32.456 103.495 32.84 104.599 32.84ZM116.903 23.696C117.303 23.024 117.831 22.504 118.487 22.136C119.159 21.752 119.951 21.56 120.863 21.56V24.392H120.167C119.095 24.392 118.279 24.664 117.719 25.208C117.175 25.752 116.903 26.696 116.903 28.04V35H114.167V21.776H116.903V23.696ZM124.77 20.024C124.274 20.024 123.858 19.856 123.522 19.52C123.186 19.184 123.018 18.768 123.018 18.272C123.018 17.776 123.186 17.36 123.522 17.024C123.858 16.688 124.274 16.52 124.77 16.52C125.25 16.52 125.658 16.688 125.994 17.024C126.33 17.36 126.498 17.776 126.498 18.272C126.498 18.768 126.33 19.184 125.994 19.52C125.658 19.856 125.25 20.024 124.77 20.024ZM126.114 21.776V35H123.378V21.776H126.114ZM132.898 24.008V31.328C132.898 31.824 133.01 32.184 133.234 32.408C133.474 32.616 133.874 32.72 134.434 32.72H136.114V35H133.954C132.722 35 131.778 34.712 131.122 34.136C130.466 33.56 130.138 32.624 130.138 31.328V24.008H128.578V21.776H130.138V18.488H132.898V21.776H136.114V24.008H132.898ZM150.756 28.064C150.756 28.56 150.724 29.008 150.66 29.408H140.556C140.636 30.464 141.028 31.312 141.732 31.952C142.436 32.592 143.3 32.912 144.324 32.912C145.796 32.912 146.836 32.296 147.444 31.064H150.396C149.996 32.28 149.268 33.28 148.212 34.064C147.172 34.832 145.876 35.216 144.324 35.216C143.06 35.216 141.924 34.936 140.916 34.376C139.924 33.8 139.14 33 138.564 31.976C138.004 30.936 137.724 29.736 137.724 28.376C137.724 27.016 137.996 25.824 138.54 24.8C139.1 23.76 139.876 22.96 140.868 22.4C141.876 21.84 143.028 21.56 144.324 21.56C145.572 21.56 146.684 21.832 147.66 22.376C148.636 22.92 149.396 23.688 149.94 24.68C150.484 25.656 150.756 26.784 150.756 28.064ZM147.9 27.2C147.884 26.192 147.524 25.384 146.82 24.776C146.116 24.168 145.244 23.864 144.204 23.864C143.26 23.864 142.452 24.168 141.78 24.776C141.108 25.368 140.708 26.176 140.58 27.2H147.9ZM162.419 23.696C162.819 23.024 163.347 22.504 164.003 22.136C164.675 21.752 165.467 21.56 166.379 21.56V24.392H165.683C164.611 24.392 163.795 24.664 163.235 25.208C162.691 25.752 162.419 26.696 162.419 28.04V35H159.683V21.776H162.419V23.696ZM181.014 28.064C181.014 28.56 180.982 29.008 180.918 29.408H170.814C170.894 30.464 171.286 31.312 171.99 31.952C172.694 32.592 173.558 32.912 174.582 32.912C176.054 32.912 177.094 32.296 177.702 31.064H180.654C180.254 32.28 179.526 33.28 178.47 34.064C177.43 34.832 176.134 35.216 174.582 35.216C173.318 35.216 172.182 34.936 171.174 34.376C170.182 33.8 169.398 33 168.822 31.976C168.262 30.936 167.982 29.736 167.982 28.376C167.982 27.016 168.254 25.824 168.798 24.8C169.358 23.76 170.134 22.96 171.126 22.4C172.134 21.84 173.286 21.56 174.582 21.56C175.83 21.56 176.942 21.832 177.918 22.376C178.894 22.92 179.654 23.688 180.198 24.68C180.742 25.656 181.014 26.784 181.014 28.064ZM178.158 27.2C178.142 26.192 177.782 25.384 177.078 24.776C176.374 24.168 175.502 23.864 174.462 23.864C173.518 23.864 172.71 24.168 172.038 24.776C171.366 25.368 170.966 26.176 170.838 27.2H178.158ZM182.794 28.376C182.794 27.016 183.066 25.824 183.61 24.8C184.17 23.76 184.938 22.96 185.914 22.4C186.89 21.84 188.01 21.56 189.274 21.56C190.874 21.56 192.194 21.944 193.234 22.712C194.29 23.464 195.002 24.544 195.37 25.952H192.418C192.178 25.296 191.794 24.784 191.266 24.416C190.738 24.048 190.074 23.864 189.274 23.864C188.154 23.864 187.258 24.264 186.586 25.064C185.93 25.848 185.602 26.952 185.602 28.376C185.602 29.8 185.93 30.912 186.586 31.712C187.258 32.512 188.154 32.912 189.274 32.912C190.858 32.912 191.906 32.216 192.418 30.824H195.37C194.986 32.168 194.266 33.24 193.21 34.04C192.154 34.824 190.842 35.216 189.274 35.216C188.01 35.216 186.89 34.936 185.914 34.376C184.938 33.8 184.17 33 183.61 31.976C183.066 30.936 182.794 29.736 182.794 28.376ZM199.489 20.024C198.993 20.024 198.577 19.856 198.241 19.52C197.905 19.184 197.737 18.768 197.737 18.272C197.737 17.776 197.905 17.36 198.241 17.024C198.577 16.688 198.993 16.52 199.489 16.52C199.969 16.52 200.377 16.688 200.713 17.024C201.049 17.36 201.217 17.776 201.217 18.272C201.217 18.768 201.049 19.184 200.713 19.52C200.377 19.856 199.969 20.024 199.489 20.024ZM200.833 21.776V35H198.097V21.776H200.833ZM207.161 23.72C207.625 23.112 208.257 22.6 209.057 22.184C209.857 21.768 210.761 21.56 211.769 21.56C212.921 21.56 213.969 21.848 214.913 22.424C215.873 22.984 216.625 23.776 217.169 24.8C217.713 25.824 217.985 27 217.985 28.328C217.985 29.656 217.713 30.848 217.169 31.904C216.625 32.944 215.873 33.76 214.913 34.352C213.969 34.928 212.921 35.216 211.769 35.216C210.761 35.216 209.865 35.016 209.081 34.616C208.297 34.2 207.657 33.688 207.161 33.08V41.288H204.425V21.776H207.161V23.72ZM215.201 28.328C215.201 27.416 215.009 26.632 214.625 25.976C214.257 25.304 213.761 24.8 213.137 24.464C212.529 24.112 211.873 23.936 211.169 23.936C210.481 23.936 209.825 24.112 209.201 24.464C208.593 24.816 208.097 25.328 207.713 26C207.345 26.672 207.161 27.464 207.161 28.376C207.161 29.288 207.345 30.088 207.713 30.776C208.097 31.448 208.593 31.96 209.201 32.312C209.825 32.664 210.481 32.84 211.169 32.84C211.873 32.84 212.529 32.664 213.137 32.312C213.761 31.944 214.257 31.416 214.625 30.728C215.009 30.04 215.201 29.24 215.201 28.328ZM232.811 28.064C232.811 28.56 232.779 29.008 232.715 29.408H222.611C222.691 30.464 223.083 31.312 223.787 31.952C224.491 32.592 225.355 32.912 226.379 32.912C227.851 32.912 228.891 32.296 229.499 31.064H232.451C232.051 32.28 231.323 33.28 230.267 34.064C229.227 34.832 227.931 35.216 226.379 35.216C225.115 35.216 223.979 34.936 222.971 34.376C221.979 33.8 221.195 33 220.619 31.976C220.059 30.936 219.779 29.736 219.779 28.376C219.779 27.016 220.051 25.824 220.595 24.8C221.155 23.76 221.931 22.96 222.923 22.4C223.931 21.84 225.083 21.56 226.379 21.56C227.627 21.56 228.739 21.832 229.715 22.376C230.691 22.92 231.451 23.688 231.995 24.68C232.539 25.656 232.811 26.784 232.811 28.064ZM229.955 27.2C229.939 26.192 229.579 25.384 228.875 24.776C228.171 24.168 227.299 23.864 226.259 23.864C225.315 23.864 224.507 24.168 223.835 24.776C223.163 25.368 222.763 26.176 222.635 27.2H229.955ZM240.303 35.216C239.263 35.216 238.327 35.032 237.495 34.664C236.679 34.28 236.031 33.768 235.551 33.128C235.071 32.472 234.815 31.744 234.783 30.944H237.615C237.663 31.504 237.927 31.976 238.407 32.36C238.903 32.728 239.519 32.912 240.255 32.912C241.023 32.912 241.615 32.768 242.031 32.48C242.463 32.176 242.679 31.792 242.679 31.328C242.679 30.832 242.439 30.464 241.959 30.224C241.495 29.984 240.751 29.72 239.727 29.432C238.735 29.16 237.927 28.896 237.303 28.64C236.679 28.384 236.135 27.992 235.671 27.464C235.223 26.936 234.999 26.24 234.999 25.376C234.999 24.672 235.207 24.032 235.623 23.456C236.039 22.864 236.631 22.4 237.399 22.064C238.183 21.728 239.079 21.56 240.087 21.56C241.591 21.56 242.799 21.944 243.711 22.712C244.639 23.464 245.135 24.496 245.199 25.808H242.463C242.415 25.216 242.175 24.744 241.743 24.392C241.311 24.04 240.727 23.864 239.991 23.864C239.271 23.864 238.719 24 238.335 24.272C237.951 24.544 237.759 24.904 237.759 25.352C237.759 25.704 237.887 26 238.143 26.24C238.399 26.48 238.711 26.672 239.079 26.816C239.447 26.944 239.991 27.112 240.711 27.32C241.671 27.576 242.455 27.84 243.063 28.112C243.687 28.368 244.223 28.752 244.671 29.264C245.119 29.776 245.351 30.456 245.367 31.304C245.367 32.056 245.159 32.728 244.743 33.32C244.327 33.912 243.735 34.376 242.967 34.712C242.215 35.048 241.327 35.216 240.303 35.216Z" fill="#484634"/>
</svg>
