<svg width="331" height="64" viewBox="0 0 331 64" fill="none" xmlns="http://www.w3.org/2000/svg">
<circle cx="32" cy="32" r="32" fill="#FFAD05"/>
<path d="M50.3967 34.5858C52.9507 29.7204 47.7593 26.3464 40.972 24.6918C41.4827 23.5311 41.6307 22.0118 40.1907 20.5611C38.344 18.7044 39.5713 15.9998 39.5713 15.9998C39.5713 15.9998 35.6953 19.5751 38.1427 22.0404C39.0453 22.9491 39.5153 23.7471 39.74 24.4144C37.8663 24.0282 35.969 23.7667 34.0607 23.6318C34.6307 22.0824 34.686 20.1364 32.89 18.2731C30.4313 15.7191 32.0687 11.9998 32.0687 11.9998C32.0687 11.9998 26.9 16.9158 30.1633 20.3051C31.3547 21.5411 31.982 22.6291 32.286 23.5411C30.2633 23.4804 28.3167 23.5691 26.5873 23.8111C26.7933 22.8144 26.6213 21.6684 25.522 20.5618C23.6753 18.7051 24.9033 15.9998 24.9033 15.9998C24.9033 15.9998 21.0267 19.5751 23.4747 22.0404C24.2413 22.8124 24.6907 23.5018 24.9487 24.1024C24.6567 24.1664 24.3733 24.2358 24.1007 24.3111C15.6727 23.5224 11.9967 25.2638 13.676 28.6798C10.7453 31.6104 11.8467 34.9551 15.514 37.5144C17.4273 45.3951 17.92 51.9998 32.3307 51.9998C45.1893 51.9998 46.966 46.7398 48.5587 40.0078C53.3373 39.0564 52.3193 36.7658 50.3967 34.5858ZM49.2053 33.7984C47.6047 37.2118 40.658 39.7811 32.3307 39.7811C24.004 39.7811 17.0573 37.2118 15.456 33.7984C15.422 33.6971 15.3893 33.5918 15.3567 33.4891C16.1193 31.5544 18.598 29.8758 22.0793 28.7518C21.2613 29.5424 21.0913 30.7231 23.244 31.1371C23.86 31.2558 25.5513 30.8451 24.812 28.7464C24.7087 28.4531 24.54 28.2564 24.3327 28.1378C26.7247 27.5904 29.44 27.2751 32.3307 27.2751C32.6547 27.2751 32.9727 27.2864 33.292 27.2938C31.624 27.8858 30.2633 29.7098 33.6693 30.2478C34.4213 30.3664 36.486 29.9558 35.5833 27.8571C35.5045 27.67 35.3781 27.5069 35.2167 27.3838C38.408 27.6184 41.2993 28.2331 43.6367 29.1191C41.5813 29.0044 39.3013 30.2711 42.9527 32.0544C43.736 32.4371 46.116 32.7884 45.7887 30.4711C45.765 30.3037 45.7059 30.1432 45.6153 30.0004C47.484 30.9851 48.7873 32.1791 49.304 33.4891L49.2053 33.7984Z" fill="white"/>
<path d="M27.8914 35.2272C30.0467 35.2272 31.484 33.2786 32.61 32.5159C34.1834 31.4492 38.1394 31.0332 34.6554 30.9492C31.3507 30.8699 27.2707 33.5526 24.544 33.3679C20.0294 33.0612 24.6534 35.2272 27.8914 35.2272Z" fill="white"/>
<path d="M32.5487 39.2085C33.31 39.3551 35.4027 38.8471 34.4873 36.2518C33.4533 33.3151 27.194 38.1778 32.5487 39.2085Z" fill="white"/>
<path d="M20.698 32.7852C19.9707 31.7585 18.916 30.4565 18.4794 31.1345C17.8827 32.0619 17.6947 33.9279 18.128 34.0105C21.5254 34.6619 21.2874 33.6165 20.698 32.7852Z" fill="white"/>
<path d="M40.448 33.2011C41.0607 32.4424 39.8374 30.6164 39.052 30.9358C37.8227 31.4358 37.114 31.0971 36.574 31.8558C35.3094 33.6325 39.6154 34.2311 40.448 33.2011Z" fill="white"/>
<path d="M40.0653 35.3751C39.184 34.9864 39.392 36.2884 38.09 35.2438C37.158 34.4958 35.1527 36.3824 36.4753 37.6637C37.9473 39.0897 38.3393 37.7344 38.958 37.8484C40.2153 38.0797 42.3773 36.3951 40.0653 35.3751Z" fill="white"/>
<path d="M25.4107 35.8206C24.9514 35.3686 24.3354 35.9139 23.9874 36.5793C23.6427 36.4099 23.362 36.3706 23.362 36.3706C23.0987 35.6199 22.3154 35.1053 22.3154 35.1053C22.3154 35.1053 22.3867 35.8859 22.49 36.2666C21.6247 35.9593 21.598 34.4126 21.598 34.4126C21.598 34.4126 21.0174 34.7599 21.07 35.3499C20.1174 34.5813 19.306 34.9406 19.306 34.9406C19.306 34.9406 20.5147 35.6206 20.6814 36.0793C20.0027 36.1319 19.6067 36.3666 19.376 36.9126C19.3767 36.9173 20.7174 36.2746 21.7094 36.7386C21.318 37.0586 21.5127 37.8579 21.5127 37.8579C22.436 36.8793 23.1734 36.9839 23.7634 37.1593C23.692 37.4586 23.6967 37.7319 23.8234 37.8979C24.8467 39.2433 28.4114 38.9406 29.3687 37.9459C30.528 36.7426 27.3067 37.6866 25.4107 35.8206Z" fill="white"/>
<path d="M27.9287 30.7533C27.6254 31.3626 27.6234 31.8226 27.974 32.3013C27.9787 32.3026 28.1154 30.8226 29.0227 30.2093C29.0967 30.7093 29.882 30.952 29.882 30.952C29.254 28.728 31.0874 28.612 31.0787 27.814C30.1067 27.896 29.5547 28.6026 29.5547 28.6026C28.7754 28.4433 27.9307 28.8506 27.9307 28.8506C27.9307 28.8506 28.638 29.19 29.0174 29.2973C28.3094 29.882 26.968 29.1106 26.968 29.1106C26.968 29.1106 26.968 29.788 27.5014 30.0446C26.3527 30.468 26.2447 31.348 26.2447 31.348C26.2447 31.348 27.4487 30.6606 27.9287 30.7533Z" fill="white"/>
<path d="M44.9627 33.7906C45.2387 33.2666 44.836 32.7219 44.836 32.7219C44.836 32.7219 44.2167 34.1399 43.3 34.0913C43.5414 33.7793 43.908 33.0859 43.908 33.0859C43.908 33.0859 42.9867 33.2613 42.4547 33.8526C42.4547 33.8526 41.5907 33.6133 40.7614 34.1253C41.2294 34.7719 42.772 33.7739 43.59 35.9353C43.59 35.9353 44.0767 35.2733 43.8387 34.8273C44.9334 34.7799 45.924 35.8879 45.9274 35.8839C45.9234 35.2906 45.6487 34.9226 45.0414 34.6133C45.372 34.2539 46.7494 34.0906 46.7494 34.0906C46.7494 34.0906 46.1387 33.4473 44.9627 33.7906Z" fill="white"/>
<path d="M89.792 29.344H86.528V44H82.848V29.344H80.768V26.368H82.848V25.12C82.848 23.0933 83.3813 21.6213 84.448 20.704C85.536 19.7653 87.232 19.296 89.536 19.296V22.336C88.4267 22.336 87.648 22.5493 87.2 22.976C86.752 23.3813 86.528 24.096 86.528 25.12V26.368H89.792V29.344ZM91.809 35.104C91.809 33.3333 92.1717 31.7653 92.897 30.4C93.6437 29.0347 94.6463 27.9787 95.905 27.232C97.185 26.464 98.593 26.08 100.129 26.08C101.516 26.08 102.721 26.3573 103.745 26.912C104.79 27.4453 105.622 28.1173 106.241 28.928V26.368H109.921V44H106.241V41.376C105.622 42.208 104.78 42.9013 103.713 43.456C102.646 44.0107 101.43 44.288 100.065 44.288C98.5503 44.288 97.1637 43.904 95.905 43.136C94.6463 42.3467 93.6437 41.2587 92.897 39.872C92.1717 38.464 91.809 36.8747 91.809 35.104ZM106.241 35.168C106.241 33.952 105.985 32.896 105.473 32C104.982 31.104 104.332 30.4213 103.521 29.952C102.71 29.4827 101.836 29.248 100.897 29.248C99.9583 29.248 99.0837 29.4827 98.273 29.952C97.4623 30.4 96.801 31.072 96.289 31.968C95.7983 32.8427 95.553 33.888 95.553 35.104C95.553 36.32 95.7983 37.3867 96.289 38.304C96.801 39.2213 97.4623 39.9253 98.273 40.416C99.105 40.8853 99.9797 41.12 100.897 41.12C101.836 41.12 102.71 40.8853 103.521 40.416C104.332 39.9467 104.982 39.264 105.473 38.368C105.985 37.4507 106.241 36.384 106.241 35.168ZM121.529 40.736L126.521 26.368H130.392L123.673 44H119.321L112.633 26.368H116.536L121.529 40.736ZM140.798 44.288C139.134 44.288 137.63 43.9147 136.286 43.168C134.942 42.4 133.886 41.3333 133.118 39.968C132.35 38.5813 131.966 36.9813 131.966 35.168C131.966 33.376 132.361 31.7867 133.15 30.4C133.939 29.0133 135.017 27.9467 136.382 27.2C137.747 26.4533 139.273 26.08 140.958 26.08C142.643 26.08 144.169 26.4533 145.534 27.2C146.899 27.9467 147.977 29.0133 148.766 30.4C149.555 31.7867 149.95 33.376 149.95 35.168C149.95 36.96 149.545 38.5493 148.734 39.936C147.923 41.3227 146.814 42.4 145.406 43.168C144.019 43.9147 142.483 44.288 140.798 44.288ZM140.798 41.12C141.737 41.12 142.611 40.896 143.422 40.448C144.254 40 144.926 39.328 145.438 38.432C145.95 37.536 146.206 36.448 146.206 35.168C146.206 33.888 145.961 32.8107 145.47 31.936C144.979 31.04 144.329 30.368 143.518 29.92C142.707 29.472 141.833 29.248 140.894 29.248C139.955 29.248 139.081 29.472 138.27 29.92C137.481 30.368 136.851 31.04 136.382 31.936C135.913 32.8107 135.678 33.888 135.678 35.168C135.678 37.0667 136.158 38.5387 137.118 39.584C138.099 40.608 139.326 41.12 140.798 41.12ZM157.204 28.928C157.738 28.032 158.442 27.3387 159.316 26.848C160.212 26.336 161.268 26.08 162.484 26.08V29.856H161.556C160.127 29.856 159.039 30.2187 158.292 30.944C157.567 31.6693 157.204 32.928 157.204 34.72V44H153.556V26.368H157.204V28.928ZM167.694 24.032C167.032 24.032 166.478 23.808 166.03 23.36C165.582 22.912 165.358 22.3573 165.358 21.696C165.358 21.0347 165.582 20.48 166.03 20.032C166.478 19.584 167.032 19.36 167.694 19.36C168.334 19.36 168.878 19.584 169.326 20.032C169.774 20.48 169.998 21.0347 169.998 21.696C169.998 22.3573 169.774 22.912 169.326 23.36C168.878 23.808 168.334 24.032 167.694 24.032ZM169.486 26.368V44H165.838V26.368H169.486ZM178.531 29.344V39.104C178.531 39.7653 178.68 40.2453 178.979 40.544C179.299 40.8213 179.832 40.96 180.579 40.96H182.819V44H179.939C178.296 44 177.038 43.616 176.163 42.848C175.288 42.08 174.851 40.832 174.851 39.104V29.344H172.771V26.368H174.851V21.984H178.531V26.368H182.819V29.344H178.531ZM202.341 34.752C202.341 35.4133 202.299 36.0107 202.213 36.544H188.741C188.848 37.952 189.371 39.0827 190.309 39.936C191.248 40.7893 192.4 41.216 193.765 41.216C195.728 41.216 197.115 40.3947 197.925 38.752H201.861C201.328 40.3733 200.357 41.7067 198.949 42.752C197.563 43.776 195.835 44.288 193.765 44.288C192.08 44.288 190.565 43.9147 189.221 43.168C187.899 42.4 186.853 41.3333 186.085 39.968C185.339 38.5813 184.965 36.9813 184.965 35.168C184.965 33.3547 185.328 31.7653 186.053 30.4C186.8 29.0133 187.835 27.9467 189.157 27.2C190.501 26.4533 192.037 26.08 193.765 26.08C195.429 26.08 196.912 26.4427 198.213 27.168C199.515 27.8933 200.528 28.9173 201.253 30.24C201.979 31.5413 202.341 33.0453 202.341 34.752ZM198.533 33.6C198.512 32.256 198.032 31.1787 197.093 30.368C196.155 29.5573 194.992 29.152 193.605 29.152C192.347 29.152 191.269 29.5573 190.373 30.368C189.477 31.1573 188.944 32.2347 188.773 33.6H198.533ZM217.892 28.928C218.425 28.032 219.129 27.3387 220.004 26.848C220.9 26.336 221.956 26.08 223.172 26.08V29.856H222.244C220.814 29.856 219.726 30.2187 218.98 30.944C218.254 31.6693 217.892 32.928 217.892 34.72V44H214.244V26.368H217.892V28.928ZM242.685 34.752C242.685 35.4133 242.642 36.0107 242.557 36.544H229.085C229.192 37.952 229.714 39.0827 230.653 39.936C231.592 40.7893 232.744 41.216 234.109 41.216C236.072 41.216 237.458 40.3947 238.269 38.752H242.205C241.672 40.3733 240.701 41.7067 239.293 42.752C237.906 43.776 236.178 44.288 234.109 44.288C232.424 44.288 230.909 43.9147 229.565 43.168C228.242 42.4 227.197 41.3333 226.429 39.968C225.682 38.5813 225.309 36.9813 225.309 35.168C225.309 33.3547 225.672 31.7653 226.397 30.4C227.144 29.0133 228.178 27.9467 229.501 27.2C230.845 26.4533 232.381 26.08 234.109 26.08C235.773 26.08 237.256 26.4427 238.557 27.168C239.858 27.8933 240.872 28.9173 241.597 30.24C242.322 31.5413 242.685 33.0453 242.685 34.752ZM238.877 33.6C238.856 32.256 238.376 31.1787 237.437 30.368C236.498 29.5573 235.336 29.152 233.949 29.152C232.69 29.152 231.613 29.5573 230.717 30.368C229.821 31.1573 229.288 32.2347 229.117 33.6H238.877ZM245.059 35.168C245.059 33.3547 245.422 31.7653 246.147 30.4C246.894 29.0133 247.918 27.9467 249.219 27.2C250.52 26.4533 252.014 26.08 253.699 26.08C255.832 26.08 257.592 26.592 258.979 27.616C260.387 28.6187 261.336 30.0587 261.827 31.936H257.891C257.571 31.0613 257.059 30.3787 256.355 29.888C255.651 29.3973 254.766 29.152 253.699 29.152C252.206 29.152 251.011 29.6853 250.115 30.752C249.24 31.7973 248.803 33.2693 248.803 35.168C248.803 37.0667 249.24 38.5493 250.115 39.616C251.011 40.6827 252.206 41.216 253.699 41.216C255.811 41.216 257.208 40.288 257.891 38.432H261.827C261.315 40.224 260.355 41.6533 258.947 42.72C257.539 43.7653 255.79 44.288 253.699 44.288C252.014 44.288 250.52 43.9147 249.219 43.168C247.918 42.4 246.894 41.3333 246.147 39.968C245.422 38.5813 245.059 36.9813 245.059 35.168ZM267.319 24.032C266.657 24.032 266.103 23.808 265.655 23.36C265.207 22.912 264.983 22.3573 264.983 21.696C264.983 21.0347 265.207 20.48 265.655 20.032C266.103 19.584 266.657 19.36 267.319 19.36C267.959 19.36 268.503 19.584 268.951 20.032C269.399 20.48 269.623 21.0347 269.623 21.696C269.623 22.3573 269.399 22.912 268.951 23.36C268.503 23.808 267.959 24.032 267.319 24.032ZM269.111 26.368V44H265.463V26.368H269.111ZM277.548 28.96C278.167 28.1493 279.009 27.4667 280.076 26.912C281.143 26.3573 282.348 26.08 283.692 26.08C285.228 26.08 286.625 26.464 287.884 27.232C289.164 27.9787 290.167 29.0347 290.892 30.4C291.617 31.7653 291.98 33.3333 291.98 35.104C291.98 36.8747 291.617 38.464 290.892 39.872C290.167 41.2587 289.164 42.3467 287.884 43.136C286.625 43.904 285.228 44.288 283.692 44.288C282.348 44.288 281.153 44.0213 280.108 43.488C279.063 42.9333 278.209 42.2507 277.548 41.44V52.384H273.9V26.368H277.548V28.96ZM288.268 35.104C288.268 33.888 288.012 32.8427 287.5 31.968C287.009 31.072 286.348 30.4 285.516 29.952C284.705 29.4827 283.831 29.248 282.892 29.248C281.975 29.248 281.1 29.4827 280.268 29.952C279.457 30.4213 278.796 31.104 278.284 32C277.793 32.896 277.548 33.952 277.548 35.168C277.548 36.384 277.793 37.4507 278.284 38.368C278.796 39.264 279.457 39.9467 280.268 40.416C281.1 40.8853 281.975 41.12 282.892 41.12C283.831 41.12 284.705 40.8853 285.516 40.416C286.348 39.9253 287.009 39.2213 287.5 38.304C288.012 37.3867 288.268 36.32 288.268 35.104ZM311.748 34.752C311.748 35.4133 311.705 36.0107 311.62 36.544H298.148C298.254 37.952 298.777 39.0827 299.716 39.936C300.654 40.7893 301.806 41.216 303.172 41.216C305.134 41.216 306.521 40.3947 307.332 38.752H311.267C310.734 40.3733 309.764 41.7067 308.356 42.752C306.969 43.776 305.241 44.288 303.172 44.288C301.486 44.288 299.972 43.9147 298.628 43.168C297.305 42.4 296.26 41.3333 295.492 39.968C294.745 38.5813 294.372 36.9813 294.372 35.168C294.372 33.3547 294.734 31.7653 295.46 30.4C296.206 29.0133 297.241 27.9467 298.564 27.2C299.908 26.4533 301.444 26.08 303.172 26.08C304.836 26.08 306.318 26.4427 307.62 27.168C308.921 27.8933 309.934 28.9173 310.66 30.24C311.385 31.5413 311.748 33.0453 311.748 34.752ZM307.94 33.6C307.918 32.256 307.438 31.1787 306.5 30.368C305.561 29.5573 304.398 29.152 303.012 29.152C301.753 29.152 300.676 29.5573 299.78 30.368C298.884 31.1573 298.35 32.2347 298.18 33.6H307.94ZM321.738 44.288C320.351 44.288 319.103 44.0427 317.994 43.552C316.906 43.04 316.042 42.3573 315.402 41.504C314.762 40.6293 314.42 39.6587 314.378 38.592H318.154C318.218 39.3387 318.57 39.968 319.21 40.48C319.871 40.9707 320.692 41.216 321.674 41.216C322.698 41.216 323.487 41.024 324.042 40.64C324.618 40.2347 324.906 39.7227 324.906 39.104C324.906 38.4427 324.586 37.952 323.946 37.632C323.327 37.312 322.335 36.96 320.97 36.576C319.647 36.2133 318.57 35.8613 317.738 35.52C316.906 35.1787 316.18 34.656 315.562 33.952C314.964 33.248 314.666 32.32 314.666 31.168C314.666 30.2293 314.943 29.376 315.498 28.608C316.052 27.8187 316.842 27.2 317.866 26.752C318.911 26.304 320.106 26.08 321.45 26.08C323.455 26.08 325.066 26.592 326.282 27.616C327.519 28.6187 328.18 29.9947 328.266 31.744H324.618C324.554 30.9547 324.234 30.3253 323.658 29.856C323.082 29.3867 322.303 29.152 321.322 29.152C320.362 29.152 319.626 29.3333 319.114 29.696C318.602 30.0587 318.346 30.5387 318.346 31.136C318.346 31.6053 318.516 32 318.858 32.32C319.199 32.64 319.615 32.896 320.106 33.088C320.596 33.2587 321.322 33.4827 322.282 33.76C323.562 34.1013 324.607 34.4533 325.418 34.816C326.25 35.1573 326.964 35.6693 327.562 36.352C328.159 37.0347 328.468 37.9413 328.49 39.072C328.49 40.0747 328.212 40.9707 327.658 41.76C327.103 42.5493 326.314 43.168 325.29 43.616C324.287 44.064 323.103 44.288 321.738 44.288Z" fill="#484634"/>
</svg>
