<svg width="245" height="48" viewBox="0 0 245 48" fill="none" xmlns="http://www.w3.org/2000/svg">
<circle cx="24" cy="24" r="24" fill="#FFAD05"/>
<path d="M37.7975 25.9395C39.713 22.2905 35.8195 19.76 30.729 18.519C31.112 17.6485 31.223 16.509 30.143 15.421C28.758 14.0285 29.6785 12 29.6785 12C29.6785 12 26.7715 14.6815 28.607 16.5305C29.284 17.212 29.6365 17.8105 29.805 18.311C28.3997 18.0213 26.9767 17.8252 25.5455 17.724C25.973 16.562 26.0145 15.1025 24.6675 13.705C22.8235 11.7895 24.0515 9 24.0515 9C24.0515 9 20.175 12.687 22.6225 15.229C23.516 16.156 23.9865 16.972 24.2145 17.656C22.6975 17.6105 21.2375 17.677 19.9405 17.8585C20.095 17.111 19.966 16.2515 19.1415 15.4215C17.7565 14.029 18.6775 12 18.6775 12C18.6775 12 15.77 14.6815 17.606 16.5305C18.181 17.1095 18.518 17.6265 18.7115 18.077C18.4925 18.125 18.28 18.177 18.0755 18.2335C11.7545 17.642 8.99748 18.948 10.257 21.51C8.05898 23.708 8.88498 26.2165 11.6355 28.136C13.0705 34.0465 13.44 39 24.248 39C33.892 39 35.2245 35.055 36.419 30.006C40.003 29.2925 39.2395 27.5745 37.7975 25.9395ZM36.904 25.349C35.7035 27.909 30.4935 29.836 24.248 29.836C18.003 29.836 12.793 27.909 11.592 25.349C11.5665 25.273 11.542 25.194 11.5175 25.117C12.0895 23.666 13.9485 22.407 16.5595 21.564C15.946 22.157 15.8185 23.0425 17.433 23.353C17.895 23.442 19.1635 23.134 18.609 21.56C18.5315 21.34 18.405 21.1925 18.2495 21.1035C20.0435 20.693 22.08 20.4565 24.248 20.4565C24.491 20.4565 24.7295 20.465 24.969 20.4705C23.718 20.9145 22.6975 22.2825 25.252 22.686C25.816 22.775 27.3645 22.467 26.6875 20.893C26.6283 20.7527 26.5335 20.6303 26.4125 20.538C28.806 20.714 30.9745 21.175 32.7275 21.8395C31.186 21.7535 29.476 22.7035 32.2145 24.041C32.802 24.328 34.587 24.5915 34.3415 22.8535C34.3237 22.7279 34.2794 22.6076 34.2115 22.5005C35.613 23.239 36.5905 24.1345 36.978 25.117L36.904 25.349Z" fill="white"/>
<path d="M20.9185 26.4205C22.535 26.4205 23.613 24.959 24.4575 24.387C25.6375 23.587 28.6045 23.275 25.9915 23.212C23.513 23.1525 20.453 25.1645 18.408 25.026C15.022 24.796 18.49 26.4205 20.9185 26.4205Z" fill="white"/>
<path d="M24.4115 29.4065C24.9825 29.5165 26.552 29.1355 25.8655 27.189C25.09 24.9865 20.3955 28.6335 24.4115 29.4065Z" fill="white"/>
<path d="M15.5235 24.589C14.978 23.819 14.187 22.8425 13.8595 23.351C13.412 24.0465 13.271 25.446 13.596 25.508C16.144 25.9965 15.9655 25.2125 15.5235 24.589Z" fill="white"/>
<path d="M30.336 24.901C30.7955 24.332 29.878 22.9625 29.289 23.202C28.367 23.577 27.8355 23.323 27.4305 23.892C26.482 25.2245 29.7115 25.6735 30.336 24.901Z" fill="white"/>
<path d="M30.049 26.5315C29.388 26.24 29.544 27.2165 28.5675 26.433C27.8685 25.872 26.3645 27.287 27.3565 28.248C28.4605 29.3175 28.7545 28.301 29.2185 28.3865C30.1615 28.56 31.783 27.2965 30.049 26.5315Z" fill="white"/>
<path d="M19.058 26.8655C18.7135 26.5265 18.2515 26.9355 17.9905 27.4345C17.732 27.3075 17.5215 27.278 17.5215 27.278C17.324 26.715 16.7365 26.329 16.7365 26.329C16.7365 26.329 16.79 26.9145 16.8675 27.2C16.2185 26.9695 16.1985 25.8095 16.1985 25.8095C16.1985 25.8095 15.763 26.07 15.8025 26.5125C15.088 25.936 14.4795 26.2055 14.4795 26.2055C14.4795 26.2055 15.386 26.7155 15.511 27.0595C15.002 27.099 14.705 27.275 14.532 27.6845C14.5325 27.688 15.538 27.206 16.282 27.554C15.9885 27.794 16.1345 28.3935 16.1345 28.3935C16.827 27.6595 17.38 27.738 17.8225 27.8695C17.769 28.094 17.7725 28.299 17.8675 28.4235C18.635 29.4325 21.3085 29.2055 22.0265 28.4595C22.896 27.557 20.48 28.265 19.058 26.8655Z" fill="white"/>
<path d="M20.9465 23.065C20.719 23.522 20.7175 23.867 20.9805 24.226C20.984 24.227 21.0865 23.117 21.767 22.657C21.8225 23.032 22.4115 23.214 22.4115 23.214C21.9405 21.546 23.3155 21.459 23.309 20.8605C22.58 20.922 22.166 21.452 22.166 21.452C21.5815 21.3325 20.948 21.638 20.948 21.638C20.948 21.638 21.4785 21.8925 21.763 21.973C21.232 22.4115 20.226 21.833 20.226 21.833C20.226 21.833 20.226 22.341 20.626 22.5335C19.7645 22.851 19.6835 23.511 19.6835 23.511C19.6835 23.511 20.5865 22.9955 20.9465 23.065Z" fill="white"/>
<path d="M33.722 25.343C33.929 24.95 33.627 24.5415 33.627 24.5415C33.627 24.5415 33.1625 25.605 32.475 25.5685C32.656 25.3345 32.931 24.8145 32.931 24.8145C32.931 24.8145 32.24 24.946 31.841 25.3895C31.841 25.3895 31.193 25.21 30.571 25.594C30.922 26.079 32.079 25.3305 32.6925 26.9515C32.6925 26.9515 33.0575 26.455 32.879 26.1205C33.7 26.085 34.443 26.916 34.4455 26.913C34.4425 26.468 34.2365 26.192 33.781 25.96C34.029 25.6905 35.062 25.568 35.062 25.568C35.062 25.568 34.604 25.0855 33.722 25.343Z" fill="white"/>
<path d="M66.2 23.648H63.44V35H61.256V23.648H59.552V21.848H61.256V20.912C61.256 19.44 61.632 18.368 62.384 17.696C63.152 17.008 64.376 16.664 66.056 16.664V18.488C65.096 18.488 64.416 18.68 64.016 19.064C63.632 19.432 63.44 20.048 63.44 20.912V21.848H66.2V23.648ZM67.9304 28.376C67.9304 27.032 68.2024 25.856 68.7464 24.848C69.2904 23.824 70.0344 23.032 70.9784 22.472C71.9384 21.912 73.0024 21.632 74.1704 21.632C75.3224 21.632 76.3224 21.88 77.1704 22.376C78.0184 22.872 78.6504 23.496 79.0664 24.248V21.848H81.2744V35H79.0664V32.552C78.6344 33.32 77.9864 33.96 77.1224 34.472C76.2744 34.968 75.2824 35.216 74.1464 35.216C72.9784 35.216 71.9224 34.928 70.9784 34.352C70.0344 33.776 69.2904 32.968 68.7464 31.928C68.2024 30.888 67.9304 29.704 67.9304 28.376ZM79.0664 28.4C79.0664 27.408 78.8664 26.544 78.4664 25.808C78.0664 25.072 77.5224 24.512 76.8344 24.128C76.1624 23.728 75.4184 23.528 74.6024 23.528C73.7864 23.528 73.0424 23.72 72.3704 24.104C71.6984 24.488 71.1624 25.048 70.7624 25.784C70.3624 26.52 70.1624 27.384 70.1624 28.376C70.1624 29.384 70.3624 30.264 70.7624 31.016C71.1624 31.752 71.6984 32.32 72.3704 32.72C73.0424 33.104 73.7864 33.296 74.6024 33.296C75.4184 33.296 76.1624 33.104 76.8344 32.72C77.5224 32.32 78.0664 31.752 78.4664 31.016C78.8664 30.264 79.0664 29.392 79.0664 28.4ZM89.8612 32.984L93.9412 21.848H96.2692L91.1092 35H88.5652L83.4052 21.848H85.7572L89.8612 32.984ZM104.154 35.216C102.922 35.216 101.802 34.936 100.794 34.376C99.8023 33.816 99.0183 33.024 98.4423 32C97.8823 30.96 97.6023 29.76 97.6023 28.4C97.6023 27.056 97.8903 25.872 98.4663 24.848C99.0583 23.808 99.8583 23.016 100.866 22.472C101.874 21.912 103.002 21.632 104.25 21.632C105.498 21.632 106.626 21.912 107.634 22.472C108.642 23.016 109.434 23.8 110.01 24.824C110.602 25.848 110.898 27.04 110.898 28.4C110.898 29.76 110.594 30.96 109.986 32C109.394 33.024 108.586 33.816 107.562 34.376C106.538 34.936 105.402 35.216 104.154 35.216ZM104.154 33.296C104.938 33.296 105.674 33.112 106.362 32.744C107.05 32.376 107.602 31.824 108.018 31.088C108.45 30.352 108.666 29.456 108.666 28.4C108.666 27.344 108.458 26.448 108.042 25.712C107.626 24.976 107.082 24.432 106.41 24.08C105.738 23.712 105.01 23.528 104.226 23.528C103.426 23.528 102.69 23.712 102.018 24.08C101.362 24.432 100.834 24.976 100.434 25.712C100.034 26.448 99.8343 27.344 99.8343 28.4C99.8343 29.472 100.026 30.376 100.41 31.112C100.81 31.848 101.338 32.4 101.994 32.768C102.65 33.12 103.37 33.296 104.154 33.296ZM115.954 23.984C116.338 23.232 116.882 22.648 117.586 22.232C118.306 21.816 119.178 21.608 120.202 21.608V23.864H119.626C117.178 23.864 115.954 25.192 115.954 27.848V35H113.77V21.848H115.954V23.984ZM123.851 19.712C123.435 19.712 123.083 19.568 122.795 19.28C122.507 18.992 122.363 18.64 122.363 18.224C122.363 17.808 122.507 17.456 122.795 17.168C123.083 16.88 123.435 16.736 123.851 16.736C124.251 16.736 124.587 16.88 124.859 17.168C125.147 17.456 125.291 17.808 125.291 18.224C125.291 18.64 125.147 18.992 124.859 19.28C124.587 19.568 124.251 19.712 123.851 19.712ZM124.907 21.848V35H122.723V21.848H124.907ZM131.293 23.648V31.4C131.293 32.04 131.429 32.496 131.701 32.768C131.973 33.024 132.445 33.152 133.117 33.152H134.725V35H132.757C131.541 35 130.629 34.72 130.021 34.16C129.413 33.6 129.109 32.68 129.109 31.4V23.648H127.405V21.848H129.109V18.536H131.293V21.848H134.725V23.648H131.293ZM149.371 27.92C149.371 28.336 149.347 28.776 149.299 29.24H138.787C138.867 30.536 139.307 31.552 140.107 32.288C140.923 33.008 141.907 33.368 143.059 33.368C144.003 33.368 144.787 33.152 145.411 32.72C146.051 32.272 146.499 31.68 146.755 30.944H149.107C148.755 32.208 148.051 33.24 146.995 34.04C145.939 34.824 144.627 35.216 143.059 35.216C141.811 35.216 140.691 34.936 139.699 34.376C138.723 33.816 137.955 33.024 137.395 32C136.835 30.96 136.555 29.76 136.555 28.4C136.555 27.04 136.827 25.848 137.371 24.824C137.915 23.8 138.675 23.016 139.651 22.472C140.643 21.912 141.779 21.632 143.059 21.632C144.307 21.632 145.411 21.904 146.371 22.448C147.331 22.992 148.067 23.744 148.579 24.704C149.107 25.648 149.371 26.72 149.371 27.92ZM147.115 27.464C147.115 26.632 146.931 25.92 146.563 25.328C146.195 24.72 145.691 24.264 145.051 23.96C144.427 23.64 143.731 23.48 142.963 23.48C141.859 23.48 140.915 23.832 140.131 24.536C139.363 25.24 138.923 26.216 138.811 27.464H147.115ZM160.837 23.984C161.221 23.232 161.765 22.648 162.469 22.232C163.189 21.816 164.061 21.608 165.085 21.608V23.864H164.509C162.061 23.864 160.837 25.192 160.837 27.848V35H158.653V21.848H160.837V23.984ZM179.606 27.92C179.606 28.336 179.582 28.776 179.534 29.24H169.022C169.102 30.536 169.542 31.552 170.342 32.288C171.158 33.008 172.142 33.368 173.294 33.368C174.238 33.368 175.022 33.152 175.646 32.72C176.286 32.272 176.734 31.68 176.99 30.944H179.342C178.99 32.208 178.286 33.24 177.23 34.04C176.174 34.824 174.862 35.216 173.294 35.216C172.046 35.216 170.926 34.936 169.934 34.376C168.958 33.816 168.19 33.024 167.63 32C167.07 30.96 166.79 29.76 166.79 28.4C166.79 27.04 167.062 25.848 167.606 24.824C168.15 23.8 168.91 23.016 169.886 22.472C170.878 21.912 172.014 21.632 173.294 21.632C174.542 21.632 175.646 21.904 176.606 22.448C177.566 22.992 178.302 23.744 178.814 24.704C179.342 25.648 179.606 26.72 179.606 27.92ZM177.35 27.464C177.35 26.632 177.166 25.92 176.798 25.328C176.43 24.72 175.926 24.264 175.286 23.96C174.662 23.64 173.966 23.48 173.198 23.48C172.094 23.48 171.15 23.832 170.366 24.536C169.598 25.24 169.158 26.216 169.046 27.464H177.35ZM181.673 28.4C181.673 27.04 181.945 25.856 182.489 24.848C183.033 23.824 183.785 23.032 184.745 22.472C185.721 21.912 186.833 21.632 188.081 21.632C189.697 21.632 191.025 22.024 192.065 22.808C193.121 23.592 193.817 24.68 194.153 26.072H191.801C191.577 25.272 191.137 24.64 190.481 24.176C189.841 23.712 189.041 23.48 188.081 23.48C186.833 23.48 185.825 23.912 185.057 24.776C184.289 25.624 183.905 26.832 183.905 28.4C183.905 29.984 184.289 31.208 185.057 32.072C185.825 32.936 186.833 33.368 188.081 33.368C189.041 33.368 189.841 33.144 190.481 32.696C191.121 32.248 191.561 31.608 191.801 30.776H194.153C193.801 32.12 193.097 33.2 192.041 34.016C190.985 34.816 189.665 35.216 188.081 35.216C186.833 35.216 185.721 34.936 184.745 34.376C183.785 33.816 183.033 33.024 182.489 32C181.945 30.976 181.673 29.776 181.673 28.4ZM198.195 19.712C197.779 19.712 197.427 19.568 197.139 19.28C196.851 18.992 196.707 18.64 196.707 18.224C196.707 17.808 196.851 17.456 197.139 17.168C197.427 16.88 197.779 16.736 198.195 16.736C198.595 16.736 198.931 16.88 199.203 17.168C199.491 17.456 199.635 17.808 199.635 18.224C199.635 18.64 199.491 18.992 199.203 19.28C198.931 19.568 198.595 19.712 198.195 19.712ZM199.251 21.848V35H197.067V21.848H199.251ZM205.157 24.272C205.589 23.52 206.229 22.896 207.077 22.4C207.941 21.888 208.941 21.632 210.077 21.632C211.245 21.632 212.301 21.912 213.245 22.472C214.205 23.032 214.957 23.824 215.501 24.848C216.045 25.856 216.317 27.032 216.317 28.376C216.317 29.704 216.045 30.888 215.501 31.928C214.957 32.968 214.205 33.776 213.245 34.352C212.301 34.928 211.245 35.216 210.077 35.216C208.957 35.216 207.965 34.968 207.101 34.472C206.253 33.96 205.605 33.328 205.157 32.576V41.24H202.973V21.848H205.157V24.272ZM214.085 28.376C214.085 27.384 213.885 26.52 213.485 25.784C213.085 25.048 212.541 24.488 211.853 24.104C211.181 23.72 210.437 23.528 209.621 23.528C208.821 23.528 208.077 23.728 207.389 24.128C206.717 24.512 206.173 25.08 205.757 25.832C205.357 26.568 205.157 27.424 205.157 28.4C205.157 29.392 205.357 30.264 205.757 31.016C206.173 31.752 206.717 32.32 207.389 32.72C208.077 33.104 208.821 33.296 209.621 33.296C210.437 33.296 211.181 33.104 211.853 32.72C212.541 32.32 213.085 31.752 213.485 31.016C213.885 30.264 214.085 29.384 214.085 28.376ZM231.192 27.92C231.192 28.336 231.168 28.776 231.12 29.24H220.608C220.688 30.536 221.128 31.552 221.928 32.288C222.744 33.008 223.728 33.368 224.88 33.368C225.824 33.368 226.608 33.152 227.232 32.72C227.872 32.272 228.32 31.68 228.576 30.944H230.928C230.576 32.208 229.872 33.24 228.816 34.04C227.76 34.824 226.448 35.216 224.88 35.216C223.632 35.216 222.512 34.936 221.52 34.376C220.544 33.816 219.776 33.024 219.216 32C218.656 30.96 218.376 29.76 218.376 28.4C218.376 27.04 218.648 25.848 219.192 24.824C219.736 23.8 220.496 23.016 221.472 22.472C222.464 21.912 223.6 21.632 224.88 21.632C226.128 21.632 227.232 21.904 228.192 22.448C229.152 22.992 229.888 23.744 230.4 24.704C230.928 25.648 231.192 26.72 231.192 27.92ZM228.936 27.464C228.936 26.632 228.752 25.92 228.384 25.328C228.016 24.72 227.512 24.264 226.872 23.96C226.248 23.64 225.552 23.48 224.784 23.48C223.68 23.48 222.736 23.832 221.952 24.536C221.184 25.24 220.744 26.216 220.632 27.464H228.936ZM238.731 35.216C237.723 35.216 236.819 35.048 236.019 34.712C235.219 34.36 234.587 33.88 234.123 33.272C233.659 32.648 233.403 31.936 233.355 31.136H235.611C235.675 31.792 235.979 32.328 236.523 32.744C237.083 33.16 237.811 33.368 238.707 33.368C239.539 33.368 240.195 33.184 240.675 32.816C241.155 32.448 241.395 31.984 241.395 31.424C241.395 30.848 241.139 30.424 240.627 30.152C240.115 29.864 239.323 29.584 238.251 29.312C237.275 29.056 236.475 28.8 235.851 28.544C235.243 28.272 234.715 27.88 234.267 27.368C233.835 26.84 233.619 26.152 233.619 25.304C233.619 24.632 233.819 24.016 234.219 23.456C234.619 22.896 235.187 22.456 235.923 22.136C236.659 21.8 237.499 21.632 238.443 21.632C239.899 21.632 241.075 22 241.971 22.736C242.867 23.472 243.347 24.48 243.411 25.76H241.227C241.179 25.072 240.899 24.52 240.387 24.104C239.891 23.688 239.219 23.48 238.371 23.48C237.587 23.48 236.963 23.648 236.499 23.984C236.035 24.32 235.803 24.76 235.803 25.304C235.803 25.736 235.939 26.096 236.211 26.384C236.499 26.656 236.851 26.88 237.267 27.056C237.699 27.216 238.291 27.4 239.043 27.608C239.987 27.864 240.755 28.12 241.347 28.376C241.939 28.616 242.443 28.984 242.859 29.48C243.291 29.976 243.515 30.624 243.531 31.424C243.531 32.144 243.331 32.792 242.931 33.368C242.531 33.944 241.963 34.4 241.227 34.736C240.507 35.056 239.675 35.216 238.731 35.216Z" fill="#484634"/>
</svg>
