<svg width="1024" height="1024" viewBox="0 0 1024 1024" fill="none" xmlns="http://www.w3.org/2000/svg">
<path d="M881 442.4H519.7V590.9H726.1C717.2 638.9 690.2 679.5 649.5 706.7C615.1 729.7 571.2 743.3 519.6 743.3C419.7 743.3 335.2 675.8 305 585.1C297.4 562.1 293 537.5 293 512.2C293 486.9 297.4 462.3 305 439.3C335.3 348.7 419.8 281.2 519.7 281.2C576 281.2 626.5 300.6 666.3 338.6L776.3 228.5C709.8 166.5 623.1 128.5 519.7 128.5C369.8 128.5 240.1 214.5 177 339.9C151 391.7 136.2 450.3 136.2 512.3C136.2 574.3 151 632.8 177 684.6C240.1 810 369.8 896 519.7 896C623.3 896 710.1 861.6 773.5 803C846 736.2 887.9 637.8 887.9 520.9C887.9 493.7 885.5 467.6 881 442.4Z" fill="white"/>
</svg>
