<svg width="24" height="24" viewBox="0 0 24 24" fill="none" xmlns="http://www.w3.org/2000/svg">
<path d="M23.2869 9.74969C23.4368 10.553 23.5185 11.3929 23.5185 12.2694C23.5185 19.1252 18.9301 24 12 24C10.424 24.0005 8.86335 23.6904 7.40723 23.0875C5.95111 22.4846 4.62805 21.6007 3.51365 20.4864C2.39925 19.372 1.51535 18.0489 0.912467 16.5928C0.309581 15.1366 -0.000479954 13.576 5.57642e-07 12C-0.000479954 10.424 0.309581 8.86335 0.912467 7.40723C1.51535 5.95111 2.39925 4.62805 3.51365 3.51365C4.62805 2.39925 5.95111 1.51535 7.40723 0.912467C8.86335 0.309581 10.424 -0.000479954 12 5.57642e-07C15.2401 5.57642e-07 17.9476 1.1922 20.0248 3.128L16.642 6.51077V6.50223C15.3828 5.30272 13.7846 4.68712 12 4.68712C8.04063 4.68712 4.82243 8.0321 4.82243 11.9927C4.82243 15.9521 8.04063 19.3043 12 19.3043C15.5924 19.3043 18.0378 17.2503 18.54 14.4295H12V9.74969H23.2881H23.2869Z" fill="white"/>
</svg>
