<svg width="24" height="24" viewBox="0 0 24 24" fill="none" xmlns="http://www.w3.org/2000/svg">
<path d="M2.88448 5.76896C4.47754 5.76896 5.76896 4.47754 5.76896 2.88448C5.76896 1.29143 4.47754 0 2.88448 0C1.29143 0 0 1.29143 0 2.88448C0 4.47754 1.29143 5.76896 2.88448 5.76896Z" fill="white"/>
<path d="M8.49261 7.9547V23.9578H13.4613V16.0439C13.4613 13.9557 13.8542 11.9334 16.4434 11.9334C18.997 11.9334 19.0286 14.3209 19.0286 16.1757V23.9591H24V15.183C24 10.8721 23.0719 7.5592 18.0333 7.5592C15.6142 7.5592 13.9926 8.88675 13.3295 10.1431H13.2623V7.9547H8.49261ZM0.395493 7.9547H5.37215V23.9578H0.395493V7.9547Z" fill="white"/>
</svg>
