<svg width="24" height="20" viewBox="0 0 24 20" fill="none" xmlns="http://www.w3.org/2000/svg">
<g clip-path="url(#clip0)">
<path d="M23.999 2.3093C23.3307 3.30341 22.5107 4.15083 21.5392 4.85158C21.5488 5.03952 21.5536 5.25194 21.5536 5.48883C21.5536 6.80508 21.3617 8.12292 20.9779 9.44235C20.5941 10.7618 20.0078 12.0247 19.2191 13.2312C18.4304 14.4376 17.4909 15.5064 16.4005 16.4376C15.3102 17.3687 13.9996 18.1112 12.4687 18.6649C10.9379 19.2187 9.29715 19.4956 7.54663 19.4956C4.81466 19.4956 2.29878 18.758 -0.00100708 17.2829C0.407178 17.3284 0.798661 17.3511 1.17344 17.3511C3.45579 17.3511 5.49429 16.6481 7.28894 15.2421C6.22478 15.2226 5.27175 14.895 4.42984 14.2594C3.58793 13.6237 3.00855 12.8115 2.6917 11.8227C3.00489 11.8823 3.31399 11.9121 3.61902 11.9121C4.05809 11.9121 4.49012 11.8549 4.91512 11.7403C3.77947 11.5129 2.83735 10.9473 2.08876 10.0435C1.34019 9.13966 0.965913 8.0965 0.965913 6.91398V6.85303C1.66298 7.23899 2.40652 7.44429 3.19651 7.46894C2.52376 7.02043 1.99037 6.43557 1.59634 5.71436C1.20228 4.99314 1.00526 4.21265 1.00526 3.3729C1.00526 2.48725 1.22719 1.66253 1.67105 0.898764C2.90605 2.41431 4.40251 3.62558 6.16044 4.53258C7.91839 5.43959 9.80434 5.94331 11.8183 6.04375C11.7324 5.68578 11.6894 5.31221 11.6892 4.92305C11.6892 3.56427 12.17 2.40406 13.1318 1.44244C14.0935 0.480812 15.2537 0 16.6125 0C18.0351 0 19.2334 0.518003 20.2073 1.55401C21.3201 1.33359 22.362 0.934915 23.3331 0.357977C22.959 1.53538 22.2381 2.44366 21.1704 3.08283C22.1517 2.96622 23.0946 2.70838 23.999 2.3093H23.999Z" fill="white"/>
</g>
<defs>
<clipPath id="clip0">
<rect width="24" height="19.4955" fill="white"/>
</clipPath>
</defs>
</svg>
