<svg width="192" height="48" viewBox="0 0 192 48" fill="none" xmlns="http://www.w3.org/2000/svg">
<circle cx="24" cy="24" r="24" fill="#F38F26"/>
<path d="M37.7973 25.9394C39.7128 22.2904 35.8193 19.7599 30.7288 18.5189C31.1118 17.6484 31.2228 16.5089 30.1428 15.4209C28.7578 14.0284 29.6783 11.9999 29.6783 11.9999C29.6783 11.9999 26.7713 14.6814 28.6068 16.5304C29.2838 17.2119 29.6363 17.8104 29.8048 18.3109C28.3995 18.0213 26.9766 17.8252 25.5453 17.7239C25.9728 16.5619 26.0143 15.1024 24.6673 13.7049C22.8233 11.7894 24.0513 8.99994 24.0513 8.99994C24.0513 8.99994 20.1748 12.6869 22.6223 15.2289C23.5158 16.1559 23.9863 16.9719 24.2143 17.6559C22.6973 17.6104 21.2373 17.6769 19.9403 17.8584C20.0948 17.1109 19.9658 16.2514 19.1413 15.4214C17.7563 14.0289 18.6773 11.9999 18.6773 11.9999C18.6773 11.9999 15.7698 14.6814 17.6058 16.5304C18.1808 17.1094 18.5178 17.6264 18.7113 18.0769C18.4923 18.1249 18.2798 18.1769 18.0753 18.2334C11.7543 17.6419 8.99731 18.9479 10.2568 21.5099C8.05881 23.7079 8.88481 26.2164 11.6353 28.1359C13.0703 34.0464 13.4398 38.9999 24.2478 38.9999C33.8918 38.9999 35.2243 35.0549 36.4188 30.0059C40.0028 29.2924 39.2393 27.5744 37.7973 25.9394ZM36.9038 25.3489C35.7033 27.9089 30.4933 29.8359 24.2478 29.8359C18.0028 29.8359 12.7928 27.9089 11.5918 25.3489C11.5663 25.2729 11.5418 25.1939 11.5173 25.1169C12.0893 23.6659 13.9483 22.4069 16.5593 21.5639C15.9458 22.1569 15.8183 23.0424 17.4328 23.3529C17.8948 23.4419 19.1633 23.1339 18.6088 21.5599C18.5313 21.3399 18.4048 21.1924 18.2493 21.1034C20.0433 20.6929 22.0798 20.4564 24.2478 20.4564C24.4908 20.4564 24.7293 20.4649 24.9688 20.4704C23.7178 20.9144 22.6973 22.2824 25.2518 22.6859C25.8158 22.7749 27.3643 22.4669 26.6873 20.8929C26.6282 20.7526 26.5334 20.6303 26.4123 20.5379C28.8058 20.7139 30.9743 21.1749 32.7273 21.8394C31.1858 21.7534 29.4758 22.7034 32.2143 24.0409C32.8018 24.3279 34.5868 24.5914 34.3413 22.8534C34.3235 22.7279 34.2792 22.6075 34.2113 22.5004C35.6128 23.2389 36.5903 24.1344 36.9778 25.1169L36.9038 25.3489Z" fill="white"/>
<path d="M20.9183 26.4204C22.5348 26.4204 23.6128 24.9589 24.4573 24.3869C25.6373 23.5869 28.6043 23.2749 25.9913 23.2119C23.5128 23.1524 20.4528 25.1644 18.4078 25.0259C15.0218 24.7959 18.4898 26.4204 20.9183 26.4204Z" fill="white"/>
<path d="M24.4114 29.4064C24.9824 29.5164 26.5519 29.1354 25.8654 27.1889C25.0899 24.9864 20.3954 28.6334 24.4114 29.4064Z" fill="white"/>
<path d="M15.5234 24.589C14.9779 23.819 14.1869 22.8425 13.8594 23.351C13.4119 24.0465 13.2709 25.446 13.5959 25.508C16.1439 25.9965 15.9654 25.2125 15.5234 24.589Z" fill="white"/>
<path d="M30.3359 24.9009C30.7954 24.3319 29.8779 22.9624 29.2889 23.2019C28.3669 23.5769 27.8354 23.3229 27.4304 23.8919C26.4819 25.2244 29.7114 25.6734 30.3359 24.9009Z" fill="white"/>
<path d="M30.0488 26.5314C29.3878 26.2399 29.5438 27.2164 28.5673 26.4329C27.8683 25.8719 26.3643 27.2869 27.3563 28.2479C28.4603 29.3174 28.7543 28.3009 29.2183 28.3864C30.1613 28.5599 31.7828 27.2964 30.0488 26.5314Z" fill="white"/>
<path d="M19.0579 26.8654C18.7134 26.5264 18.2514 26.9354 17.9904 27.4344C17.7319 27.3074 17.5214 27.2779 17.5214 27.2779C17.3239 26.7149 16.7364 26.3289 16.7364 26.3289C16.7364 26.3289 16.7899 26.9144 16.8674 27.1999C16.2184 26.9694 16.1984 25.8094 16.1984 25.8094C16.1984 25.8094 15.7629 26.0699 15.8024 26.5124C15.0879 25.9359 14.4794 26.2054 14.4794 26.2054C14.4794 26.2054 15.3859 26.7154 15.5109 27.0594C15.0019 27.0989 14.7049 27.2749 14.5319 27.6844C14.5324 27.6879 15.5379 27.206 16.2819 27.554C15.9884 27.794 16.1344 28.3934 16.1344 28.3934C16.8269 27.6594 17.3799 27.7379 17.8224 27.8694C17.7689 28.0939 17.7724 28.2989 17.8674 28.4234C18.6349 29.4325 21.3084 29.2054 22.0264 28.4594C22.8959 27.5569 20.4799 28.2649 19.0579 26.8654Z" fill="white"/>
<path d="M20.9463 23.065C20.7188 23.522 20.7173 23.867 20.9803 24.226C20.9838 24.227 21.0863 23.117 21.7668 22.657C21.8223 23.032 22.4113 23.214 22.4113 23.214C21.9403 21.546 23.3153 21.459 23.3088 20.8605C22.5798 20.922 22.1658 21.452 22.1658 21.452C21.5813 21.3325 20.9478 21.638 20.9478 21.638C20.9478 21.638 21.4783 21.8925 21.7628 21.973C21.2318 22.4115 20.2258 21.833 20.2258 21.833C20.2258 21.833 20.2258 22.341 20.6258 22.5335C19.7643 22.851 19.6833 23.511 19.6833 23.511C19.6833 23.511 20.5863 22.9955 20.9463 23.065Z" fill="white"/>
<path d="M33.7219 25.3429C33.9289 24.9499 33.6269 24.5414 33.6269 24.5414C33.6269 24.5414 33.1624 25.6049 32.4749 25.5684C32.6559 25.3344 32.9309 24.8144 32.9309 24.8144C32.9309 24.8144 32.2399 24.9459 31.8409 25.3894C31.8409 25.3894 31.1929 25.2099 30.5709 25.5939C30.9219 26.0789 32.0789 25.3304 32.6924 26.9514C32.6924 26.9514 33.0574 26.4549 32.8789 26.1204C33.6999 26.0849 34.4429 26.9159 34.4454 26.9129C34.4424 26.4679 34.2364 26.1919 33.7809 25.9599C34.0289 25.6904 35.0619 25.5679 35.0619 25.5679C35.0619 25.5679 34.6039 25.0854 33.7219 25.3429Z" fill="white"/>
<path d="M73.728 15.192H77.472V33H73.728V15.192ZM93.5948 26.592C93.5948 26.64 93.5708 26.976 93.5228 27.6H83.7548C83.9308 28.4 84.3468 29.032 85.0028 29.496C85.6588 29.96 86.4748 30.192 87.4508 30.192C88.1228 30.192 88.7148 30.096 89.2268 29.904C89.7548 29.696 90.2428 29.376 90.6908 28.944L92.6828 31.104C91.4668 32.496 89.6908 33.192 87.3548 33.192C85.8988 33.192 84.6108 32.912 83.4908 32.352C82.3708 31.776 81.5068 30.984 80.8988 29.976C80.2908 28.968 79.9868 27.824 79.9868 26.544C79.9868 25.28 80.2828 24.144 80.8748 23.136C81.4828 22.112 82.3068 21.32 83.3468 20.76C84.4028 20.184 85.5788 19.896 86.8748 19.896C88.1388 19.896 89.2828 20.168 90.3068 20.712C91.3308 21.256 92.1308 22.04 92.7068 23.064C93.2988 24.072 93.5948 25.248 93.5948 26.592ZM86.8988 22.728C86.0508 22.728 85.3388 22.968 84.7628 23.448C84.1868 23.928 83.8348 24.584 83.7068 25.416H90.0668C89.9388 24.6 89.5868 23.952 89.0108 23.472C88.4348 22.976 87.7308 22.728 86.8988 22.728ZM104.415 32.376C104.047 32.648 103.591 32.856 103.047 33C102.519 33.128 101.959 33.192 101.367 33.192C99.8314 33.192 98.6394 32.8 97.7914 32.016C96.9594 31.232 96.5434 30.08 96.5434 28.56V23.256H94.5514V20.376H96.5434V17.232H100.287V20.376H103.503V23.256H100.287V28.512C100.287 29.056 100.423 29.48 100.695 29.784C100.983 30.072 101.383 30.216 101.895 30.216C102.487 30.216 102.991 30.056 103.407 29.736L104.415 32.376ZM107.957 15C108.629 15 109.181 15.216 109.613 15.648C110.045 16.064 110.261 16.616 110.261 17.304C110.261 17.624 110.221 17.944 110.141 18.264C110.061 18.584 109.893 19.064 109.637 19.704L108.245 23.16H105.869L106.901 19.368C106.501 19.192 106.189 18.928 105.965 18.576C105.741 18.224 105.629 17.8 105.629 17.304C105.629 16.616 105.845 16.064 106.277 15.648C106.725 15.216 107.285 15 107.957 15ZM116.72 33.192C115.648 33.192 114.6 33.064 113.576 32.808C112.552 32.536 111.736 32.2 111.128 31.8L112.376 29.112C112.952 29.48 113.648 29.784 114.464 30.024C115.28 30.248 116.08 30.36 116.864 30.36C118.448 30.36 119.24 29.968 119.24 29.184C119.24 28.816 119.024 28.552 118.592 28.392C118.16 28.232 117.496 28.096 116.6 27.984C115.544 27.824 114.672 27.64 113.984 27.432C113.296 27.224 112.696 26.856 112.184 26.328C111.688 25.8 111.44 25.048 111.44 24.072C111.44 23.256 111.672 22.536 112.136 21.912C112.616 21.272 113.304 20.776 114.2 20.424C115.112 20.072 116.184 19.896 117.416 19.896C118.328 19.896 119.232 20 120.128 20.208C121.04 20.4 121.792 20.672 122.384 21.024L121.136 23.688C120 23.048 118.76 22.728 117.416 22.728C116.616 22.728 116.016 22.84 115.616 23.064C115.216 23.288 115.016 23.576 115.016 23.928C115.016 24.328 115.232 24.608 115.664 24.768C116.096 24.928 116.784 25.08 117.728 25.224C118.784 25.4 119.648 25.592 120.32 25.8C120.992 25.992 121.576 26.352 122.072 26.88C122.568 27.408 122.816 28.144 122.816 29.088C122.816 29.888 122.576 30.6 122.096 31.224C121.616 31.848 120.912 32.336 119.984 32.688C119.072 33.024 117.984 33.192 116.72 33.192ZM138.163 33.192C136.787 33.192 135.547 32.912 134.443 32.352C133.355 31.776 132.499 30.984 131.875 29.976C131.267 28.968 130.963 27.824 130.963 26.544C130.963 25.264 131.267 24.12 131.875 23.112C132.499 22.104 133.355 21.32 134.443 20.76C135.547 20.184 136.787 19.896 138.163 19.896C139.523 19.896 140.707 20.184 141.715 20.76C142.739 21.32 143.483 22.128 143.947 23.184L141.043 24.744C140.371 23.56 139.403 22.968 138.139 22.968C137.163 22.968 136.355 23.288 135.715 23.928C135.075 24.568 134.755 25.44 134.755 26.544C134.755 27.648 135.075 28.52 135.715 29.16C136.355 29.8 137.163 30.12 138.139 30.12C139.419 30.12 140.387 29.528 141.043 28.344L143.947 29.928C143.483 30.952 142.739 31.752 141.715 32.328C140.707 32.904 139.523 33.192 138.163 33.192ZM152.083 33.192C150.723 33.192 149.499 32.912 148.411 32.352C147.339 31.776 146.499 30.984 145.891 29.976C145.283 28.968 144.979 27.824 144.979 26.544C144.979 25.264 145.283 24.12 145.891 23.112C146.499 22.104 147.339 21.32 148.411 20.76C149.499 20.184 150.723 19.896 152.083 19.896C153.443 19.896 154.659 20.184 155.731 20.76C156.803 21.32 157.643 22.104 158.251 23.112C158.859 24.12 159.163 25.264 159.163 26.544C159.163 27.824 158.859 28.968 158.251 29.976C157.643 30.984 156.803 31.776 155.731 32.352C154.659 32.912 153.443 33.192 152.083 33.192ZM152.083 30.12C153.043 30.12 153.827 29.8 154.435 29.16C155.059 28.504 155.371 27.632 155.371 26.544C155.371 25.456 155.059 24.592 154.435 23.952C153.827 23.296 153.043 22.968 152.083 22.968C151.123 22.968 150.331 23.296 149.707 23.952C149.083 24.592 148.771 25.456 148.771 26.544C148.771 27.632 149.083 28.504 149.707 29.16C150.331 29.8 151.123 30.12 152.083 30.12ZM167.81 33.192C166.45 33.192 165.226 32.912 164.138 32.352C163.066 31.776 162.226 30.984 161.618 29.976C161.01 28.968 160.706 27.824 160.706 26.544C160.706 25.264 161.01 24.12 161.618 23.112C162.226 22.104 163.066 21.32 164.138 20.76C165.226 20.184 166.45 19.896 167.81 19.896C169.17 19.896 170.386 20.184 171.458 20.76C172.53 21.32 173.37 22.104 173.978 23.112C174.586 24.12 174.89 25.264 174.89 26.544C174.89 27.824 174.586 28.968 173.978 29.976C173.37 30.984 172.53 31.776 171.458 32.352C170.386 32.912 169.17 33.192 167.81 33.192ZM167.81 30.12C168.77 30.12 169.554 29.8 170.162 29.16C170.786 28.504 171.098 27.632 171.098 26.544C171.098 25.456 170.786 24.592 170.162 23.952C169.554 23.296 168.77 22.968 167.81 22.968C166.85 22.968 166.058 23.296 165.434 23.952C164.81 24.592 164.498 25.456 164.498 26.544C164.498 27.632 164.81 28.504 165.434 29.16C166.058 29.8 166.85 30.12 167.81 30.12ZM182.936 27.936L181.136 29.712V33H177.392V15.192H181.136V25.272L186.608 20.088H191.072L185.696 25.56L191.552 33H187.016L182.936 27.936Z" fill="#121212"/>
</svg>
