<svg width="181" height="48" viewBox="0 0 181 48" fill="none" xmlns="http://www.w3.org/2000/svg">
<circle cx="24" cy="24" r="24" fill="#F38F26"/>
<path d="M37.7975 25.9394C39.713 22.2904 35.8195 19.7599 30.729 18.5189C31.112 17.6484 31.223 16.5089 30.143 15.4209C28.758 14.0284 29.6785 11.9999 29.6785 11.9999C29.6785 11.9999 26.7715 14.6814 28.607 16.5304C29.284 17.2119 29.6365 17.8104 29.805 18.3109C28.3998 18.0213 26.9768 17.8252 25.5455 17.7239C25.973 16.5619 26.0145 15.1024 24.6675 13.7049C22.8235 11.7894 24.0515 8.99994 24.0515 8.99994C24.0515 8.99994 20.175 12.6869 22.6225 15.2289C23.516 16.1559 23.9865 16.9719 24.2145 17.6559C22.6975 17.6104 21.2375 17.6769 19.9405 17.8584C20.095 17.1109 19.966 16.2514 19.1415 15.4214C17.7565 14.0289 18.6775 11.9999 18.6775 11.9999C18.6775 11.9999 15.77 14.6814 17.606 16.5304C18.181 17.1094 18.518 17.6264 18.7115 18.0769C18.4925 18.1249 18.28 18.1769 18.0755 18.2334C11.7545 17.6419 8.99754 18.9479 10.257 21.5099C8.05904 23.7079 8.88504 26.2164 11.6355 28.1359C13.0705 34.0464 13.44 38.9999 24.248 38.9999C33.892 38.9999 35.2245 35.0549 36.419 30.0059C40.003 29.2924 39.2395 27.5744 37.7975 25.9394ZM36.904 25.3489C35.7035 27.9089 30.4935 29.8359 24.248 29.8359C18.003 29.8359 12.793 27.9089 11.592 25.3489C11.5665 25.2729 11.542 25.1939 11.5175 25.1169C12.0895 23.6659 13.9485 22.4069 16.5595 21.5639C15.946 22.1569 15.8185 23.0424 17.433 23.3529C17.895 23.4419 19.1635 23.1339 18.609 21.5599C18.5315 21.3399 18.405 21.1924 18.2495 21.1034C20.0435 20.6929 22.08 20.4564 24.248 20.4564C24.491 20.4564 24.7295 20.4649 24.969 20.4704C23.718 20.9144 22.6975 22.2824 25.252 22.6859C25.816 22.7749 27.3645 22.4669 26.6875 20.8929C26.6284 20.7526 26.5336 20.6303 26.4125 20.5379C28.806 20.7139 30.9745 21.1749 32.7275 21.8394C31.186 21.7534 29.476 22.7034 32.2145 24.0409C32.802 24.3279 34.587 24.5914 34.3415 22.8534C34.3238 22.7279 34.2795 22.6075 34.2115 22.5004C35.613 23.2389 36.5905 24.1344 36.978 25.1169L36.904 25.3489Z" fill="white"/>
<path d="M20.9185 26.4205C22.535 26.4205 23.613 24.959 24.4575 24.387C25.6375 23.587 28.6045 23.275 25.9915 23.212C23.513 23.1525 20.453 25.1645 18.408 25.026C15.022 24.796 18.49 26.4205 20.9185 26.4205Z" fill="white"/>
<path d="M24.4115 29.4064C24.9825 29.5164 26.552 29.1354 25.8655 27.1889C25.09 24.9864 20.3955 28.6334 24.4115 29.4064Z" fill="white"/>
<path d="M15.5235 24.5889C14.978 23.8189 14.187 22.8424 13.8595 23.3509C13.412 24.0464 13.271 25.4459 13.596 25.5079C16.144 25.9964 15.9655 25.2124 15.5235 24.5889Z" fill="white"/>
<path d="M30.3359 24.9009C30.7954 24.3319 29.8779 22.9624 29.2889 23.2019C28.3669 23.5769 27.8354 23.3229 27.4304 23.8919C26.4819 25.2244 29.7114 25.6734 30.3359 24.9009Z" fill="white"/>
<path d="M30.049 26.5314C29.388 26.2399 29.544 27.2164 28.5675 26.4329C27.8685 25.8719 26.3645 27.2869 27.3565 28.2479C28.4605 29.3174 28.7545 28.3009 29.2185 28.3864C30.1615 28.5599 31.783 27.2964 30.049 26.5314Z" fill="white"/>
<path d="M19.058 26.8654C18.7135 26.5264 18.2515 26.9354 17.9905 27.4344C17.732 27.3074 17.5215 27.2779 17.5215 27.2779C17.324 26.7149 16.7365 26.3289 16.7365 26.3289C16.7365 26.3289 16.79 26.9144 16.8675 27.1999C16.2185 26.9694 16.1985 25.8094 16.1985 25.8094C16.1985 25.8094 15.763 26.0699 15.8025 26.5124C15.088 25.9359 14.4795 26.2054 14.4795 26.2054C14.4795 26.2054 15.386 26.7154 15.511 27.0594C15.002 27.0989 14.705 27.2749 14.532 27.6844C14.5325 27.6879 15.538 27.206 16.282 27.554C15.9885 27.794 16.1345 28.3934 16.1345 28.3934C16.827 27.6594 17.38 27.7379 17.8225 27.8694C17.769 28.0939 17.7725 28.2989 17.8675 28.4234C18.635 29.4325 21.3085 29.2054 22.0265 28.4594C22.896 27.5569 20.48 28.2649 19.058 26.8654Z" fill="white"/>
<path d="M20.9465 23.0649C20.719 23.5219 20.7175 23.8669 20.9805 24.2259C20.984 24.2269 21.0865 23.1169 21.767 22.6569C21.8225 23.0319 22.4115 23.2139 22.4115 23.2139C21.9405 21.5459 23.3155 21.4589 23.309 20.8604C22.58 20.9219 22.166 21.4519 22.166 21.4519C21.5815 21.3324 20.948 21.6379 20.948 21.6379C20.948 21.6379 21.4785 21.8924 21.763 21.9729C21.232 22.4114 20.226 21.8329 20.226 21.8329C20.226 21.8329 20.226 22.3409 20.626 22.5334C19.7645 22.8509 19.6835 23.5109 19.6835 23.5109C19.6835 23.5109 20.5865 22.9954 20.9465 23.0649Z" fill="white"/>
<path d="M33.722 25.3429C33.929 24.9499 33.627 24.5414 33.627 24.5414C33.627 24.5414 33.1625 25.6049 32.475 25.5684C32.656 25.3344 32.931 24.8144 32.931 24.8144C32.931 24.8144 32.24 24.9459 31.841 25.3894C31.841 25.3894 31.193 25.2099 30.571 25.5939C30.922 26.0789 32.079 25.3304 32.6925 26.9514C32.6925 26.9514 33.0575 26.4549 32.879 26.1204C33.7 26.0849 34.443 26.9159 34.4455 26.9129C34.4425 26.4679 34.2365 26.1919 33.781 25.9599C34.029 25.6904 35.062 25.5679 35.062 25.5679C35.062 25.5679 34.604 25.0854 33.722 25.3429Z" fill="white"/>
<path d="M65.968 14.192H68.968V32H65.968V14.192ZM84.9535 25.664C84.9535 25.872 84.9375 26.168 84.9055 26.552H74.8495C75.0255 27.496 75.4815 28.248 76.2175 28.808C76.9695 29.352 77.8975 29.624 79.0015 29.624C80.4095 29.624 81.5695 29.16 82.4815 28.232L84.0895 30.08C83.5135 30.768 82.7855 31.288 81.9055 31.64C81.0255 31.992 80.0335 32.168 78.9295 32.168C77.5215 32.168 76.2815 31.888 75.2095 31.328C74.1375 30.768 73.3055 29.992 72.7135 29C72.1375 27.992 71.8495 26.856 71.8495 25.592C71.8495 24.344 72.1295 23.224 72.6895 22.232C73.2655 21.224 74.0575 20.44 75.0655 19.88C76.0735 19.32 77.2095 19.04 78.4735 19.04C79.7215 19.04 80.8335 19.32 81.8095 19.88C82.8015 20.424 83.5695 21.2 84.1135 22.208C84.6735 23.2 84.9535 24.352 84.9535 25.664ZM78.4735 21.44C77.5135 21.44 76.6975 21.728 76.0255 22.304C75.3695 22.864 74.9695 23.616 74.8255 24.56H82.0975C81.9695 23.632 81.5775 22.88 80.9215 22.304C80.2655 21.728 79.4495 21.44 78.4735 21.44ZM95.5392 31.304C95.1872 31.592 94.7552 31.808 94.2432 31.952C93.7472 32.096 93.2192 32.168 92.6592 32.168C91.2512 32.168 90.1632 31.8 89.3952 31.064C88.6272 30.328 88.2432 29.256 88.2432 27.848V21.68H86.1312V19.28H88.2432V16.352H91.2432V19.28H94.6752V21.68H91.2432V27.776C91.2432 28.4 91.3952 28.88 91.6992 29.216C92.0032 29.536 92.4432 29.696 93.0192 29.696C93.6912 29.696 94.2512 29.52 94.6992 29.168L95.5392 31.304ZM98.9911 14.024C99.5511 14.024 100.015 14.208 100.383 14.576C100.751 14.944 100.935 15.416 100.935 15.992C100.935 16.28 100.895 16.56 100.815 16.832C100.751 17.104 100.615 17.512 100.407 18.056L99.1591 21.464H97.2151L98.1751 17.768C97.8231 17.64 97.5431 17.424 97.3351 17.12C97.1431 16.8 97.0471 16.424 97.0471 15.992C97.0471 15.416 97.2311 14.944 97.5991 14.576C97.9671 14.208 98.4311 14.024 98.9911 14.024ZM107.428 32.168C106.388 32.168 105.372 32.032 104.38 31.76C103.388 31.488 102.596 31.144 102.004 30.728L103.156 28.448C103.732 28.832 104.42 29.144 105.22 29.384C106.036 29.608 106.836 29.72 107.62 29.72C109.412 29.72 110.308 29.248 110.308 28.304C110.308 27.856 110.076 27.544 109.612 27.368C109.164 27.192 108.436 27.024 107.428 26.864C106.372 26.704 105.508 26.52 104.836 26.312C104.18 26.104 103.604 25.744 103.108 25.232C102.628 24.704 102.388 23.976 102.388 23.048C102.388 21.832 102.892 20.864 103.9 20.144C104.924 19.408 106.3 19.04 108.028 19.04C108.908 19.04 109.788 19.144 110.668 19.352C111.548 19.544 112.268 19.808 112.828 20.144L111.676 22.424C110.588 21.784 109.364 21.464 108.004 21.464C107.124 21.464 106.452 21.6 105.988 21.872C105.54 22.128 105.316 22.472 105.316 22.904C105.316 23.384 105.556 23.728 106.036 23.936C106.532 24.128 107.292 24.312 108.316 24.488C109.34 24.648 110.18 24.832 110.836 25.04C111.492 25.248 112.052 25.6 112.516 26.096C112.996 26.592 113.236 27.296 113.236 28.208C113.236 29.408 112.716 30.368 111.676 31.088C110.636 31.808 109.22 32.168 107.428 32.168ZM128.332 32.168C127.004 32.168 125.812 31.888 124.756 31.328C123.7 30.768 122.876 29.992 122.284 29C121.692 27.992 121.396 26.856 121.396 25.592C121.396 24.328 121.692 23.2 122.284 22.208C122.876 21.216 123.692 20.44 124.732 19.88C125.788 19.32 126.988 19.04 128.332 19.04C129.596 19.04 130.7 19.296 131.644 19.808C132.604 20.32 133.324 21.056 133.804 22.016L131.5 23.36C131.132 22.768 130.668 22.328 130.108 22.04C129.564 21.736 128.964 21.584 128.308 21.584C127.188 21.584 126.26 21.952 125.524 22.688C124.788 23.408 124.42 24.376 124.42 25.592C124.42 26.808 124.78 27.784 125.5 28.52C126.236 29.24 127.172 29.6 128.308 29.6C128.964 29.6 129.564 29.456 130.108 29.168C130.668 28.864 131.132 28.416 131.5 27.824L133.804 29.168C133.308 30.128 132.58 30.872 131.62 31.4C130.676 31.912 129.58 32.168 128.332 32.168ZM141.97 32.168C140.674 32.168 139.506 31.888 138.466 31.328C137.426 30.768 136.61 29.992 136.018 29C135.442 27.992 135.154 26.856 135.154 25.592C135.154 24.328 135.442 23.2 136.018 22.208C136.61 21.216 137.426 20.44 138.466 19.88C139.506 19.32 140.674 19.04 141.97 19.04C143.282 19.04 144.458 19.32 145.498 19.88C146.538 20.44 147.346 21.216 147.922 22.208C148.514 23.2 148.81 24.328 148.81 25.592C148.81 26.856 148.514 27.992 147.922 29C147.346 29.992 146.538 30.768 145.498 31.328C144.458 31.888 143.282 32.168 141.97 32.168ZM141.97 29.6C143.074 29.6 143.986 29.232 144.706 28.496C145.426 27.76 145.786 26.792 145.786 25.592C145.786 24.392 145.426 23.424 144.706 22.688C143.986 21.952 143.074 21.584 141.97 21.584C140.866 21.584 139.954 21.952 139.234 22.688C138.53 23.424 138.178 24.392 138.178 25.592C138.178 26.792 138.53 27.76 139.234 28.496C139.954 29.232 140.866 29.6 141.97 29.6ZM157.439 32.168C156.143 32.168 154.975 31.888 153.935 31.328C152.895 30.768 152.079 29.992 151.487 29C150.911 27.992 150.623 26.856 150.623 25.592C150.623 24.328 150.911 23.2 151.487 22.208C152.079 21.216 152.895 20.44 153.935 19.88C154.975 19.32 156.143 19.04 157.439 19.04C158.751 19.04 159.927 19.32 160.967 19.88C162.007 20.44 162.815 21.216 163.391 22.208C163.983 23.2 164.279 24.328 164.279 25.592C164.279 26.856 163.983 27.992 163.391 29C162.815 29.992 162.007 30.768 160.967 31.328C159.927 31.888 158.751 32.168 157.439 32.168ZM157.439 29.6C158.543 29.6 159.455 29.232 160.175 28.496C160.895 27.76 161.255 26.792 161.255 25.592C161.255 24.392 160.895 23.424 160.175 22.688C159.455 21.952 158.543 21.584 157.439 21.584C156.335 21.584 155.423 21.952 154.703 22.688C153.999 23.424 153.647 24.392 153.647 25.592C153.647 26.792 153.999 27.76 154.703 28.496C155.423 29.232 156.335 29.6 157.439 29.6ZM172.38 26.504L170.148 28.616V32H167.148V14.192H170.148V24.944L176.364 19.184H179.964L174.612 24.56L180.468 32H176.82L172.38 26.504Z" fill="white"/>
</svg>
